#N canvas 819 66 1748 821 10;
#X obj 54 186 markov_matrix;
#X obj 53 46 bng 15 250 50 0 empty empty play 17 7 0 10 #fcfcfc #000000 #000000;
#X obj 322 100 bng 15 250 50 0 empty empty reset 17 7 0 10 #fcfcfc #000000 #000000;
#X obj 54 209 print out;
#X obj 197 209 print;
#X obj 128 129 t a b;
#X floatatom 565 33 5 0 0 0 - - - 0;
#X floatatom 622 33 5 0 0 0 - - - 0;
#X floatatom 680 33 5 0 0 0 - - - 0;
#X floatatom 727 33 5 0 0 0 - - - 0;
#X floatatom 777 33 5 0 0 0 - - - 0;
#X floatatom 830 33 5 0 0 0 - - - 0;
#X floatatom 876 33 5 0 0 0 - - - 0;
#X floatatom 929 33 5 0 0 0 - - - 0;
#X floatatom 879 78 5 0 0 0 - - - 0;
#X floatatom 933 76 5 0 0 0 - - - 0;
#X floatatom 568 120 5 0 0 0 - - - 0;
#X floatatom 626 120 5 0 0 0 - - - 0;
#X floatatom 673 120 5 0 0 0 - - - 0;
#X floatatom 723 120 5 0 0 0 - - - 0;
#X floatatom 776 120 5 0 0 0 - - - 0;
#X floatatom 822 120 5 0 0 0 - - - 0;
#X floatatom 778 153 5 0 0 0 - - - 0;
#X floatatom 826 153 5 0 0 0 - - - 0;
#X floatatom 879 153 5 0 0 0 - - - 0;
#X floatatom 936 153 5 0 0 0 - - - 0;
#X floatatom 574 193 5 0 0 0 - - - 0;
#X floatatom 621 193 5 0 0 0 - - - 0;
#X floatatom 671 193 5 0 0 0 - - - 0;
#X floatatom 724 193 5 0 0 0 - - - 0;
#X floatatom 675 233 5 0 0 0 - - - 0;
#X floatatom 728 233 5 0 0 0 - - - 0;
#X floatatom 776 233 5 0 0 0 - - - 0;
#X floatatom 825 233 5 0 0 0 - - - 0;
#X floatatom 882 233 5 0 0 0 - - - 0;
#X floatatom 940 233 5 0 0 0 - - - 0;
#X floatatom 575 280 5 0 0 0 - - - 0;
#X floatatom 625 280 5 0 0 0 - - - 0;
#X floatatom 579 317 5 0 0 0 - - - 0;
#X floatatom 629 317 5 0 0 0 - - - 0;
#X floatatom 682 317 5 0 0 0 - - - 0;
#X floatatom 730 317 5 0 0 0 - - - 0;
#X floatatom 781 311 5 0 0 0 - - - 0;
#X floatatom 838 311 5 0 0 0 - - - 0;
#X floatatom 896 311 5 0 0 0 - - - 0;
#X floatatom 943 311 5 0 0 0 - - - 0;
#X obj 486 781 print;
#X floatatom 566 78 5 0 0 0 - - - 0;
#X floatatom 623 78 5 0 0 0 - - - 0;
#X floatatom 681 78 5 0 0 0 - - - 0;
#X floatatom 728 78 5 0 0 0 - - - 0;
#X floatatom 778 78 5 0 0 0 - - - 0;
#X floatatom 831 78 5 0 0 0 - - - 0;
#X floatatom 875 120 5 0 0 0 - - - 0;
#X floatatom 932 120 5 0 0 0 - - - 0;
#X floatatom 572 154 5 0 0 0 - - - 0;
#X floatatom 628 153 5 0 0 0 - - - 0;
#X floatatom 675 153 5 0 0 0 - - - 0;
#X floatatom 725 153 5 0 0 0 - - - 0;
#X floatatom 770 193 5 0 0 0 - - - 0;
#X floatatom 823 193 5 0 0 0 - - - 0;
#X floatatom 880 193 5 0 0 0 - - - 0;
#X floatatom 937 193 5 0 0 0 - - - 0;
#X floatatom 578 233 5 0 0 0 - - - 0;
#X floatatom 625 233 5 0 0 0 - - - 0;
#X floatatom 678 280 5 0 0 0 - - - 0;
#X floatatom 724 280 5 0 0 0 - - - 0;
#X floatatom 777 280 5 0 0 0 - - - 0;
#X floatatom 834 280 5 0 0 0 - - - 0;
#X floatatom 891 280 5 0 0 0 - - - 0;
#X floatatom 949 280 5 0 0 0 - - - 0;
#X msg 485 597 list 0 0 \$1 \, 0 1 \$2 \, 0 2 \$3 \, 0 3 \$4 \, 0 4 \$5 \, 0 5 \$6 \, 0 6 \$7 \, 0 7 \$8 \, 0 8 \$9 \, 0 9 \$10 \, 0 10 \$11 \, 0 11 \$12 \, 0 12 \$13 \, 0 13 \$14 \, 0 14 \$15 \, 1 0 \$16 \, 1 1 \$17 \, 1 2 \$18 \, 1 3 \$19 \, 1 4 \$20 \, 1 5 \$21 \, 1 6 \$22 \, 1 7 \$23 \, 1 8 \$24 \, 1 9 \$25 \, 1 10 \$26 \, 1 11 \$27 \, 1 12 \$28 \, 1 13 \$29 \, 1 14 \$30 \, 2 0 \$31 \, 2 1 \$32 \, 2 2 \$33 \, 2 3 \$34 \, 2 4 \$35 \, 2 5 \$36 \, 2 6 \$37 \, 2 7 \$38 \, 2 8 \$39 \, 2 9 \$40 \, 2 10 \$41 \, 2 11 \$42 \, 2 12 \$43 \, 2 13 \$44 \, 2 14 \$45 \, 3 0 \$46 \, 3 1 \$47 \, 3 2 \$48 \, 3 3 \$49 \, 3 4 \$50 \, 3 5 \$51 \, 3 6 \$52 \, 3 7 \$53 \, 3 8 \$54 \, 3 9 \$55 \, 3 10 \$56 \, 3 11 \$57 \, 3 12 \$58 \, 3 13 \$59 \, 3 14 \$60 \, 4 0 \$61 \, 4 1 \$62 \, 4 2 \$63 \, 4 3 \$64 \, 4 4 \$65 \, 4 5 \$66 \, 4 6 \$67 \, 4 7 \$68 \, 4 8 \$69 \, 4 9 \$70 \, 4 10 \$71 \, 4 11 \$72 \, 4 12 \$73 \, 4 13 \$74 \, 4 14 \$75 \, 5 0 \$76 \, 5 1 \$77 \, 5 2 \$78 \, 5 3 \$79 \, 5 4 \$80 \, 5 5 \$81 \, 5 6 \$82 \, 5 7 \$83 \, 5 8 \$84 \, 5 9 \$85 \, 5 10 \$86 \, 5 11 \$87 \, 5 12 \$88 \, 5 13 \$89 \, 5 14 \$90 \, 6 0 \$91 \, 6 1 \$92 \, 6 2 \$93 \, 6 3 \$94 \, 6 4 \$95 \, 6 5 \$96 \, 6 6 \$97 \, 6 7 \$98 \, 6 8 \$99 \, 6 9 \$100 \, 6 10 \$101 \, 6 11 \$102 \, 6 12 \$103 \, 6 13 \$104 \, 6 14 \$105 \, 7 0 \$106 \, 7 1 \$107 \, 7 2 \$108 \, 7 3 \$109 \, 7 4 \$110 \, 7 5 \$111 \, 7 6 \$112 \, 7 7 \$113 \, 7 8 \$114 \, 7 9 \$115 \, 7 10 \$116 \, 7 11 \$117 \, 7 12 \$118 \, 7 13 \$119 \, 7 14 \$120 \, 8 0 \$121 \, 8 1 \$122 \, 8 2 \$123 \, 8 3 \$124 \, 8 4 \$125 \, 8 5 \$126 \, 8 6 \$127 \, 8 7 \$128 \, 8 8 \$129 \, 8 9 \$130 \, 8 10 \$131 \, 8 11 \$132 \, 8 12 \$133 \, 8 13 \$134 \, 8 14 \$135, f 114;
#X obj 124 424 bng 16 250 50 0 empty empty empty 0 -8 0 10 #fcfcfc #000000 #000000;
#X obj 436 254 CREE_Chords;
#X floatatom 41 279 5 0 0 0 - - - 0;
#X obj 118 487 pack f f f f f f f f f f f f f f f f f f f f f f f f f f f f f f f f f f f f f f f f f f f f f f f f f f f f f f f f f f f f f f f f, f 314;
#X msg 129 47 0 0 0 \, 0 1 0 \, 0 2 0 \, 0 8 5 \, 1 0 0 \, 1 1 0 \, 1 2 0 \, 8 0 1 \, 8 1 0;
#X connect 0 0 3 0;
#X connect 0 0 73 0;
#X connect 0 0 74 0;
#X connect 1 0 0 0;
#X connect 2 0 0 1;
#X connect 5 0 4 0;
#X connect 5 1 0 1;
#X connect 6 0 75 0;
#X connect 7 0 75 1;
#X connect 8 0 75 2;
#X connect 9 0 75 3;
#X connect 10 0 75 4;
#X connect 11 0 75 5;
#X connect 12 0 75 6;
#X connect 13 0 75 7;
#X connect 14 0 75 14;
#X connect 15 0 75 15;
#X connect 16 0 75 16;
#X connect 17 0 75 17;
#X connect 18 0 75 18;
#X connect 19 0 75 19;
#X connect 20 0 75 20;
#X connect 21 0 75 21;
#X connect 22 0 75 28;
#X connect 23 0 75 29;
#X connect 24 0 75 30;
#X connect 25 0 75 31;
#X connect 26 0 75 32;
#X connect 27 0 75 33;
#X connect 28 0 75 34;
#X connect 29 0 75 35;
#X connect 30 0 75 42;
#X connect 31 0 75 43;
#X connect 32 0 75 44;
#X connect 33 0 75 45;
#X connect 34 0 75 46;
#X connect 35 0 75 47;
#X connect 36 0 75 48;
#X connect 37 0 75 49;
#X connect 38 0 75 56;
#X connect 39 0 75 57;
#X connect 40 0 75 58;
#X connect 41 0 75 59;
#X connect 42 0 75 60;
#X connect 43 0 75 61;
#X connect 44 0 75 62;
#X connect 45 0 75 63;
#X connect 47 0 75 8;
#X connect 48 0 75 9;
#X connect 49 0 75 10;
#X connect 50 0 75 11;
#X connect 51 0 75 12;
#X connect 52 0 75 13;
#X connect 53 0 75 22;
#X connect 54 0 75 23;
#X connect 55 0 75 24;
#X connect 56 0 75 25;
#X connect 57 0 75 26;
#X connect 58 0 75 27;
#X connect 59 0 75 36;
#X connect 60 0 75 37;
#X connect 61 0 75 38;
#X connect 62 0 75 39;
#X connect 63 0 75 40;
#X connect 64 0 75 41;
#X connect 65 0 75 50;
#X connect 66 0 75 51;
#X connect 67 0 75 52;
#X connect 68 0 75 53;
#X connect 69 0 75 54;
#X connect 70 0 75 55;
#X connect 71 0 46 0;
#X connect 71 0 0 1;
#X connect 72 0 75 0;
#X connect 75 0 71 0;
#X connect 76 0 0 1;
