#N canvas 819 66 2482 1037 10;
#X obj 54 186 markov_matrix;
#X obj 53 46 bng 15 250 50 0 empty empty play 17 7 0 10 #fcfcfc #000000 #000000;
#X obj 322 100 bng 15 250 50 0 empty empty reset 17 7 0 10 #fcfcfc #000000 #000000;
#X obj 54 209 print out;
#X obj 197 209 print;
#X obj 128 129 t a b;
#X floatatom 565 33 5 0 0 0 - - - 0;
#X floatatom 622 33 5 0 0 0 - - - 0;
#X floatatom 680 33 5 0 0 0 - - - 0;
#X floatatom 727 33 5 0 0 0 - - - 0;
#X floatatom 777 33 5 0 0 0 - - - 0;
#X floatatom 830 33 5 0 0 0 - - - 0;
#X floatatom 876 33 5 0 0 0 - - - 0;
#X floatatom 929 33 5 0 0 0 - - - 0;
#X floatatom 879 78 5 0 0 0 - - - 0;
#X floatatom 933 76 5 0 0 0 - - - 0;
#X floatatom 568 120 5 0 0 0 - - - 0;
#X floatatom 626 120 5 0 0 0 - - - 0;
#X floatatom 673 120 5 0 0 0 - - - 0;
#X floatatom 723 120 5 0 0 0 - - - 0;
#X floatatom 776 120 5 0 0 0 - - - 0;
#X floatatom 822 120 5 0 0 0 - - - 0;
#X floatatom 778 153 5 0 0 0 - - - 0;
#X floatatom 826 153 5 0 0 0 - - - 0;
#X floatatom 879 153 5 0 0 0 - - - 0;
#X floatatom 936 153 5 0 0 0 - - - 0;
#X floatatom 574 193 5 0 0 0 - - - 0;
#X floatatom 621 193 5 0 0 0 - - - 0;
#X floatatom 671 193 5 0 0 0 - - - 0;
#X floatatom 724 193 5 0 0 0 - - - 0;
#X floatatom 675 233 5 0 0 0 - - - 0;
#X floatatom 728 233 5 0 0 0 - - - 0;
#X floatatom 776 233 5 0 0 0 - - - 0;
#X floatatom 825 233 5 0 0 0 - - - 0;
#X floatatom 882 233 5 0 0 0 - - - 0;
#X floatatom 940 233 5 0 0 0 - - - 0;
#X floatatom 575 280 5 0 0 0 - - - 0;
#X floatatom 625 280 5 0 0 0 - - - 0;
#X floatatom 579 317 5 0 0 0 - - - 0;
#X floatatom 629 317 5 0 0 0 - - - 0;
#X floatatom 682 317 5 0 0 0 - - - 0;
#X floatatom 730 317 5 0 0 0 - - - 0;
#X floatatom 781 311 5 0 0 0 - - - 0;
#X floatatom 838 311 5 0 0 0 - - - 0;
#X floatatom 896 311 5 0 0 0 - - - 0;
#X floatatom 943 311 5 0 0 0 - - - 0;
#X obj 486 781 print;
#X floatatom 566 78 5 0 0 0 - - - 0;
#X floatatom 623 78 5 0 0 0 - - - 0;
#X floatatom 681 78 5 0 0 0 - - - 0;
#X floatatom 728 78 5 0 0 0 - - - 0;
#X floatatom 778 78 5 0 0 0 - - - 0;
#X floatatom 831 78 5 0 0 0 - - - 0;
#X floatatom 875 120 5 0 0 0 - - - 0;
#X floatatom 932 120 5 0 0 0 - - - 0;
#X floatatom 572 154 5 0 0 0 - - - 0;
#X floatatom 628 153 5 0 0 0 - - - 0;
#X floatatom 675 153 5 0 0 0 - - - 0;
#X floatatom 725 153 5 0 0 0 - - - 0;
#X floatatom 770 193 5 0 0 0 - - - 0;
#X floatatom 823 193 5 0 0 0 - - - 0;
#X floatatom 880 193 5 0 0 0 - - - 0;
#X floatatom 937 193 5 0 0 0 - - - 0;
#X floatatom 578 233 5 0 0 0 - - - 0;
#X floatatom 625 233 5 0 0 0 - - - 0;
#X floatatom 678 280 5 0 0 0 - - - 0;
#X floatatom 724 280 5 0 0 0 - - - 0;
#X floatatom 777 280 5 0 0 0 - - - 0;
#X floatatom 834 280 5 0 0 0 - - - 0;
#X floatatom 891 280 5 0 0 0 - - - 0;
#X floatatom 949 280 5 0 0 0 - - - 0;
#X obj 124 424 bng 16 250 50 0 empty empty empty 0 -8 0 10 #fcfcfc #000000 #000000;
#X obj 436 254 CREE_Chords;
#X floatatom 41 279 5 0 0 0 - - - 0;
#X obj 118 487 pack f f f f f f f f f f f f f f f f f f f f f f f f f f f f f f f f f f f f f f f f f f f f f f f f f f f f f f f f f f f f f f f f, f 314;
#X msg 129 47 0 0 0 \, 0 1 0 \, 0 2 0 \, 0 8 5 \, 1 0 0 \, 1 1 0 \, 1 2 0 \, 8 0 1 \, 8 1 0;
#X msg 485 597 list 0 0 \$1 \, 0 1 \$2 \, 0 2 \$3 \, 0 3 \$4 \, 0 4 \$5 \, 0 5 \$6 \, 0 6 \$7 \, 0 7 \$8 \, 1 0 \$9 \, 1 1 \$10 \, 1 2 \$11 \, 1 3 \$12 \, 1 4 \$13 \, 1 5 \$14 \, 1 6 \$15 \, 1 7 \$16 \, 2 0 \$17 \, 2 1 \$18 \, 2 2 \$19 \, 2 3 \$20 \, 2 4 \$21 \, 2 5 \$22 \, 2 6 \$23 \, 2 7 \$24 \, 3 0 \$25 \, 3 1 \$26 \, 3 2 \$27 \, 3 3 \$28 \, 3 4 \$29 \, 3 5 \$30 \, 3 6 \$31 \, 3 7 \$32 \, 4 0 \$33 \, 4 1 \$34 \, 4 2 \$35 \, 4 3 \$36 \, 4 4 \$37 \, 4 5 \$38 \, 4 6 \$39 \, 4 7 \$40 \, 5 0 \$41 \, 5 1 \$42 \, 5 2 \$43 \, 5 3 \$44 \, 5 4 \$45 \, 5 5 \$46 \, 5 6 \$47 \, 5 7 \$48 \, 6 0 \$49 \, 6 1 \$50 \, 6 2 \$51 \, 6 3 \$52 \, 6 4 \$53 \, 6 5 \$54 \, 6 6 \$55 \, 6 7 \$56 \, 7 0 \$57 \, 7 1 \$58 \, 7 2 \$59 \, 7 3 \$60 \, 7 4 \$61 \, 7 5 \$62 \, 7 6 \$63 \, 7 7 \$64, f 114;
#X connect 0 0 3 0;
#X connect 0 0 72 0;
#X connect 0 0 73 0;
#X connect 1 0 0 0;
#X connect 2 0 0 1;
#X connect 5 0 4 0;
#X connect 5 1 0 1;
#X connect 6 0 74 0;
#X connect 7 0 74 1;
#X connect 8 0 74 2;
#X connect 9 0 74 3;
#X connect 10 0 74 4;
#X connect 11 0 74 5;
#X connect 12 0 74 6;
#X connect 13 0 74 7;
#X connect 14 0 74 14;
#X connect 15 0 74 15;
#X connect 16 0 74 16;
#X connect 17 0 74 17;
#X connect 18 0 74 18;
#X connect 19 0 74 19;
#X connect 20 0 74 20;
#X connect 21 0 74 21;
#X connect 22 0 74 28;
#X connect 23 0 74 29;
#X connect 24 0 74 30;
#X connect 25 0 74 31;
#X connect 26 0 74 32;
#X connect 27 0 74 33;
#X connect 28 0 74 34;
#X connect 29 0 74 35;
#X connect 30 0 74 42;
#X connect 31 0 74 43;
#X connect 32 0 74 44;
#X connect 33 0 74 45;
#X connect 34 0 74 46;
#X connect 35 0 74 47;
#X connect 36 0 74 48;
#X connect 37 0 74 49;
#X connect 38 0 74 56;
#X connect 39 0 74 57;
#X connect 40 0 74 58;
#X connect 41 0 74 59;
#X connect 42 0 74 60;
#X connect 43 0 74 61;
#X connect 44 0 74 62;
#X connect 45 0 74 63;
#X connect 47 0 74 8;
#X connect 48 0 74 9;
#X connect 49 0 74 10;
#X connect 50 0 74 11;
#X connect 51 0 74 12;
#X connect 52 0 74 13;
#X connect 53 0 74 22;
#X connect 54 0 74 23;
#X connect 55 0 74 24;
#X connect 56 0 74 25;
#X connect 57 0 74 26;
#X connect 58 0 74 27;
#X connect 59 0 74 36;
#X connect 60 0 74 37;
#X connect 61 0 74 38;
#X connect 62 0 74 39;
#X connect 63 0 74 40;
#X connect 64 0 74 41;
#X connect 65 0 74 50;
#X connect 66 0 74 51;
#X connect 67 0 74 52;
#X connect 68 0 74 53;
#X connect 69 0 74 54;
#X connect 70 0 74 55;
#X connect 71 0 74 0;
#X connect 74 0 76 0;
#X connect 75 0 0 1;
#X connect 76 0 46 0;
#X connect 76 0 0 1;
