#N canvas 588 276 1021 450 12;
#X obj 277 294 bng 19 250 50 0 empty empty empty 0 -10 0 12 #fcfcfc #000000 #000000;
#X obj 355 294 bng 19 250 50 0 empty empty empty 0 -10 0 12 #fcfcfc #000000 #000000;
#X obj 438 295 bng 19 250 50 0 empty empty empty 0 -10 0 12 #fcfcfc #000000 #000000;
#X obj 497 294 bng 19 250 50 0 empty empty empty 0 -10 0 12 #fcfcfc #000000 #000000;
#X obj 565 294 bng 19 250 50 0 empty empty empty 0 -10 0 12 #fcfcfc #000000 #000000;
#X obj 626 294 bng 19 250 50 0 empty empty empty 0 -10 0 12 #fcfcfc #000000 #000000;
#X obj 705 294 bng 19 250 50 0 empty empty empty 0 -10 0 12 #fcfcfc #000000 #000000;
#X obj 783 294 bng 19 250 50 0 empty empty empty 0 -10 0 12 #fcfcfc #000000 #000000;
#X obj 453 88 inlet;
#X obj 453 112 bng 19 250 50 0 empty empty empty 0 -10 0 12 #fcfcfc #000000 #000000;
#N canvas 3564 216 2482 1037 monosynth 1;
#X obj 650 145 inlet;
#X obj 622 765 outlet~;
#X obj 639 585 hsl 128 15 0 1 0 1 empty empty 'roomsize' 20 8 0 10 #fcfcfc #fc8000 #000000 3900 0;
#X obj 668 633 hsl 128 15 0 2.4 0 1 empty empty damp 20 8 0 10 #fcfcfc #fc8000 #000000 9900 0;
#X floatatom 649 611 5 0 0 0 - - - 0;
#X floatatom 674 653 5 0 0 0 - - - 0;
#N canvas 592 382 406 200 vfreeverb~ 0;
#N canvas 429 411 766 293 combfilters-left1 0;
#X obj 72 227 +~;
#X obj 87 205 *~ 0.3;
#X obj 87 183 lop~ 1000;
#X obj 242 227 +~;
#X obj 257 205 *~ 0.3;
#X obj 257 183 lop~ 1000;
#X obj 427 205 *~ 0.3;
#X obj 427 183 lop~ 1000;
#X obj 412 227 +~;
#X obj 597 205 *~ 0.3;
#X obj 597 183 lop~ 1000;
#X obj 582 227 +~;
#X obj 87 139 delread~ \$0-comb1left;
#X obj 257 139 delread~ \$0-comb2left;
#X obj 427 139 delread~ \$0-comb3left;
#X obj 597 139 delread~ \$0-comb4left;
#X obj 72 249 delwrite~ \$0-comb1left 100;
#X obj 242 249 delwrite~ \$0-comb2left 100;
#X obj 412 249 delwrite~ \$0-comb3left 100;
#X obj 582 249 delwrite~ \$0-comb4left 100;
#X obj 138 161 r \$0-frequency;
#X obj 308 161 r \$0-frequency;
#X obj 478 161 r \$0-frequency;
#X obj 648 161 r \$0-frequency;
#X obj 12 210 inlet~;
#X obj 665 200 outlet~;
#X obj 12 188 clip 0 0.99;
#X obj 12 166 r \$0-room;
#X obj 114 78 samplerate~;
#X obj 87 95 /;
#X obj 87 56 t f b;
#X obj 87 117 * 1000;
#X obj 87 12 loadbang;
#X msg 87 34 1116;
#X obj 284 78 samplerate~;
#X obj 257 95 /;
#X obj 257 56 t f b;
#X obj 257 117 * 1000;
#X obj 257 12 loadbang;
#X msg 257 34 1188;
#X obj 454 78 samplerate~;
#X obj 427 95 /;
#X obj 427 56 t f b;
#X obj 427 117 * 1000;
#X obj 427 12 loadbang;
#X obj 624 78 samplerate~;
#X obj 597 95 /;
#X obj 597 56 t f b;
#X obj 597 117 * 1000;
#X obj 597 12 loadbang;
#X msg 427 34 1277;
#X msg 597 34 1356;
#X connect 0 0 16 0;
#X connect 1 0 0 1;
#X connect 2 0 1 0;
#X connect 2 0 25 0;
#X connect 3 0 17 0;
#X connect 4 0 3 1;
#X connect 5 0 4 0;
#X connect 5 0 25 0;
#X connect 6 0 8 1;
#X connect 7 0 6 0;
#X connect 7 0 25 0;
#X connect 8 0 18 0;
#X connect 9 0 11 1;
#X connect 10 0 9 0;
#X connect 10 0 25 0;
#X connect 11 0 19 0;
#X connect 12 0 2 0;
#X connect 13 0 5 0;
#X connect 14 0 7 0;
#X connect 15 0 10 0;
#X connect 20 0 2 1;
#X connect 21 0 5 1;
#X connect 22 0 7 1;
#X connect 23 0 10 1;
#X connect 24 0 0 0;
#X connect 24 0 3 0;
#X connect 24 0 8 0;
#X connect 24 0 11 0;
#X connect 26 0 1 1;
#X connect 26 0 4 1;
#X connect 26 0 6 1;
#X connect 26 0 9 1;
#X connect 27 0 26 0;
#X connect 28 0 29 1;
#X connect 29 0 31 0;
#X connect 30 0 29 0;
#X connect 30 1 28 0;
#X connect 31 0 12 0;
#X connect 32 0 33 0;
#X connect 33 0 30 0;
#X connect 34 0 35 1;
#X connect 35 0 37 0;
#X connect 36 0 35 0;
#X connect 36 1 34 0;
#X connect 37 0 13 0;
#X connect 38 0 39 0;
#X connect 39 0 36 0;
#X connect 40 0 41 1;
#X connect 41 0 43 0;
#X connect 42 0 41 0;
#X connect 42 1 40 0;
#X connect 43 0 14 0;
#X connect 44 0 50 0;
#X connect 45 0 46 1;
#X connect 46 0 48 0;
#X connect 47 0 46 0;
#X connect 47 1 45 0;
#X connect 48 0 15 0;
#X connect 49 0 51 0;
#X connect 50 0 42 0;
#X connect 51 0 47 0;
#X restore 12 73 pd combfilters-left1;
#N canvas 562 74 448 547 diffusor-left 0;
#X obj 27 156 *~ 0.5;
#X obj 12 178 +~;
#X obj 42 178 -~;
#X obj 12 112 inlet~;
#X obj 57 244 *~ 0.5;
#X obj 42 266 +~;
#X obj 72 266 -~;
#X obj 87 332 *~ 0.5;
#X obj 72 354 +~;
#X obj 102 354 -~;
#X obj 117 420 *~ 0.5;
#X obj 102 445 +~;
#X obj 132 445 -~;
#X obj 132 511 outlet~;
#X obj 132 489 hip~ 5;
#X obj 27 134 delread~ \$0-allpass1left;
#X obj 12 200 delwrite~ \$0-allpass1left 40;
#X obj 57 222 delread~ \$0-allpass2left;
#X obj 42 288 delwrite~ \$0-allpass2left 40;
#X obj 87 310 delread~ \$0-allpass3left;
#X obj 72 376 delwrite~ \$0-allpass3left 40;
#X obj 117 398 delread~ \$0-allpass4left;
#X obj 102 467 delwrite~ \$0-allpass4left 40;
#X obj 212 78 samplerate~;
#X obj 185 95 /;
#X obj 185 56 t f b;
#X obj 185 117 * 1000;
#X obj 185 12 loadbang;
#X msg 185 34 225;
#X obj 262 166 samplerate~;
#X obj 235 183 /;
#X obj 235 144 t f b;
#X obj 235 205 * 1000;
#X obj 235 100 loadbang;
#X msg 235 122 556;
#X obj 312 254 samplerate~;
#X obj 285 271 /;
#X obj 285 232 t f b;
#X obj 285 293 * 1000;
#X obj 285 188 loadbang;
#X msg 285 210 441;
#X obj 362 342 samplerate~;
#X obj 335 359 /;
#X obj 335 320 t f b;
#X obj 335 381 * 1000;
#X obj 335 276 loadbang;
#X msg 335 298 341;
#X connect 0 0 1 1;
#X connect 1 0 16 0;
#X connect 2 0 5 0;
#X connect 2 0 6 1;
#X connect 3 0 1 0;
#X connect 3 0 2 1;
#X connect 4 0 5 1;
#X connect 5 0 18 0;
#X connect 6 0 8 0;
#X connect 6 0 9 1;
#X connect 7 0 8 1;
#X connect 8 0 20 0;
#X connect 9 0 11 0;
#X connect 9 0 12 1;
#X connect 10 0 11 1;
#X connect 11 0 22 0;
#X connect 12 0 14 0;
#X connect 14 0 13 0;
#X connect 15 0 0 0;
#X connect 15 0 2 0;
#X connect 17 0 4 0;
#X connect 17 0 6 0;
#X connect 19 0 7 0;
#X connect 19 0 9 0;
#X connect 21 0 10 0;
#X connect 21 0 12 0;
#X connect 23 0 24 1;
#X connect 24 0 26 0;
#X connect 25 0 24 0;
#X connect 25 1 23 0;
#X connect 26 0 15 0;
#X connect 27 0 28 0;
#X connect 28 0 25 0;
#X connect 29 0 30 1;
#X connect 30 0 32 0;
#X connect 31 0 30 0;
#X connect 31 1 29 0;
#X connect 32 0 17 0;
#X connect 33 0 34 0;
#X connect 34 0 31 0;
#X connect 35 0 36 1;
#X connect 36 0 38 0;
#X connect 37 0 36 0;
#X connect 37 1 35 0;
#X connect 38 0 19 0;
#X connect 39 0 40 0;
#X connect 40 0 37 0;
#X connect 41 0 42 1;
#X connect 42 0 44 0;
#X connect 43 0 42 0;
#X connect 43 1 41 0;
#X connect 44 0 21 0;
#X connect 45 0 46 0;
#X connect 46 0 43 0;
#X restore 12 139 pd diffusor-left;
#X obj 162 56 *~ 0.015;
#X obj 162 12 inlet~;
#X obj 212 12 inlet~;
#X obj 12 161 outlet~;
#X obj 162 161 outlet~;
#X obj 262 12 inlet;
#X obj 312 12 inlet;
#N canvas 0 22 207 207 room 0;
#X obj 32 35 inlet;
#X obj 32 63 * 0.28;
#X obj 32 94 + 0.7;
#X obj 32 160 outlet;
#X text 80 65 scaleroom;
#X text 76 94 offsetroom;
#X obj 47 126 s \$0-room;
#X connect 0 0 1 0;
#X connect 1 0 2 0;
#X connect 2 0 3 0;
#X connect 2 0 6 0;
#X restore 262 34 pd room;
#N canvas 684 169 154 298 frequency 0;
#X obj 39 166 samplerate~;
#X obj 12 12 inlet;
#X obj 12 144 t f b;
#X obj 12 183 *;
#X obj 22 227 s \$0-frequency;
#X obj 12 249 outlet;
#X obj 12 56 * 0.4;
#X obj 12 100 -;
#X obj 12 122 abs;
#X obj 12 205 * 0.5;
#X obj 12 34 clip 0 2.4;
#X msg 12 78 1 \$1;
#X text 62 249 for [lop~];
#X text 52 56 scaledamp;
#X connect 0 0 3 1;
#X connect 1 0 10 0;
#X connect 2 0 3 0;
#X connect 2 1 0 0;
#X connect 3 0 9 0;
#X connect 6 0 11 0;
#X connect 7 0 8 0;
#X connect 8 0 2 0;
#X connect 9 0 5 0;
#X connect 9 0 4 0;
#X connect 10 0 6 0;
#X connect 11 0 7 0;
#X restore 312 34 pd frequency;
#N canvas 429 411 766 293 combfilters-right1 0;
#X obj 72 227 +~;
#X obj 87 205 *~ 0.3;
#X obj 87 183 lop~ 1000;
#X obj 242 227 +~;
#X obj 257 205 *~ 0.3;
#X obj 257 183 lop~ 1000;
#X obj 427 205 *~ 0.3;
#X obj 427 183 lop~ 1000;
#X obj 412 227 +~;
#X obj 597 205 *~ 0.3;
#X obj 597 183 lop~ 1000;
#X obj 582 227 +~;
#X obj 138 161 r \$0-frequency;
#X obj 308 161 r \$0-frequency;
#X obj 478 161 r \$0-frequency;
#X obj 648 161 r \$0-frequency;
#X obj 12 210 inlet~;
#X obj 665 200 outlet~;
#X obj 12 188 clip 0 0.99;
#X obj 12 166 r \$0-room;
#X obj 114 78 samplerate~;
#X obj 87 95 /;
#X obj 87 56 t f b;
#X obj 87 117 * 1000;
#X obj 87 12 loadbang;
#X obj 284 78 samplerate~;
#X obj 257 95 /;
#X obj 257 56 t f b;
#X obj 257 117 * 1000;
#X obj 257 12 loadbang;
#X obj 454 78 samplerate~;
#X obj 427 95 /;
#X obj 427 56 t f b;
#X obj 427 117 * 1000;
#X obj 427 12 loadbang;
#X obj 624 78 samplerate~;
#X obj 597 95 /;
#X obj 597 56 t f b;
#X obj 597 117 * 1000;
#X obj 597 12 loadbang;
#X obj 72 249 delwrite~ \$0-comb1right 100;
#X obj 242 249 delwrite~ \$0-comb2right 100;
#X obj 412 249 delwrite~ \$0-comb3right 100;
#X obj 582 249 delwrite~ \$0-comb4right 100;
#X obj 87 139 delread~ \$0-comb1right;
#X obj 257 139 delread~ \$0-comb2right;
#X obj 427 139 delread~ \$0-comb3right;
#X obj 597 139 delread~ \$0-comb4right;
#X msg 87 34 1139;
#X msg 257 34 1211;
#X msg 427 34 1300;
#X msg 597 34 1379;
#X connect 0 0 40 0;
#X connect 1 0 0 1;
#X connect 2 0 1 0;
#X connect 2 0 17 0;
#X connect 3 0 41 0;
#X connect 4 0 3 1;
#X connect 5 0 4 0;
#X connect 5 0 17 0;
#X connect 6 0 8 1;
#X connect 7 0 6 0;
#X connect 7 0 17 0;
#X connect 8 0 42 0;
#X connect 9 0 11 1;
#X connect 10 0 9 0;
#X connect 10 0 17 0;
#X connect 11 0 43 0;
#X connect 12 0 2 1;
#X connect 13 0 5 1;
#X connect 14 0 7 1;
#X connect 15 0 10 1;
#X connect 16 0 0 0;
#X connect 16 0 3 0;
#X connect 16 0 8 0;
#X connect 16 0 11 0;
#X connect 18 0 1 1;
#X connect 18 0 4 1;
#X connect 18 0 6 1;
#X connect 18 0 9 1;
#X connect 19 0 18 0;
#X connect 20 0 21 1;
#X connect 21 0 23 0;
#X connect 22 0 21 0;
#X connect 22 1 20 0;
#X connect 23 0 44 0;
#X connect 24 0 48 0;
#X connect 25 0 26 1;
#X connect 26 0 28 0;
#X connect 27 0 26 0;
#X connect 27 1 25 0;
#X connect 28 0 45 0;
#X connect 29 0 49 0;
#X connect 30 0 31 1;
#X connect 31 0 33 0;
#X connect 32 0 31 0;
#X connect 32 1 30 0;
#X connect 33 0 46 0;
#X connect 34 0 50 0;
#X connect 35 0 36 1;
#X connect 36 0 38 0;
#X connect 37 0 36 0;
#X connect 37 1 35 0;
#X connect 38 0 47 0;
#X connect 39 0 51 0;
#X connect 44 0 2 0;
#X connect 45 0 5 0;
#X connect 46 0 7 0;
#X connect 47 0 10 0;
#X connect 48 0 22 0;
#X connect 49 0 27 0;
#X connect 50 0 32 0;
#X connect 51 0 37 0;
#X restore 162 73 pd combfilters-right1;
#N canvas 429 411 766 293 combfilters-left2 0;
#X obj 72 227 +~;
#X obj 87 205 *~ 0.3;
#X obj 87 183 lop~ 1000;
#X obj 242 227 +~;
#X obj 257 205 *~ 0.3;
#X obj 257 183 lop~ 1000;
#X obj 427 205 *~ 0.3;
#X obj 427 183 lop~ 1000;
#X obj 412 227 +~;
#X obj 597 205 *~ 0.3;
#X obj 597 183 lop~ 1000;
#X obj 582 227 +~;
#X obj 138 161 r \$0-frequency;
#X obj 308 161 r \$0-frequency;
#X obj 478 161 r \$0-frequency;
#X obj 648 161 r \$0-frequency;
#X obj 12 210 inlet~;
#X obj 665 200 outlet~;
#X obj 12 188 clip 0 0.99;
#X obj 12 166 r \$0-room;
#X obj 114 78 samplerate~;
#X obj 87 95 /;
#X obj 87 56 t f b;
#X obj 87 117 * 1000;
#X obj 87 12 loadbang;
#X obj 284 78 samplerate~;
#X obj 257 95 /;
#X obj 257 56 t f b;
#X obj 257 117 * 1000;
#X obj 257 12 loadbang;
#X obj 454 78 samplerate~;
#X obj 427 95 /;
#X obj 427 56 t f b;
#X obj 427 117 * 1000;
#X obj 427 12 loadbang;
#X obj 624 78 samplerate~;
#X obj 597 95 /;
#X obj 597 56 t f b;
#X obj 597 117 * 1000;
#X obj 597 12 loadbang;
#X msg 87 34 1422;
#X msg 257 34 1491;
#X msg 427 34 1557;
#X msg 597 34 1617;
#X obj 87 139 delread~ \$0-comb5left;
#X obj 72 249 delwrite~ \$0-comb5left 100;
#X obj 242 249 delwrite~ \$0-comb6left 100;
#X obj 257 139 delread~ \$0-comb6left;
#X obj 427 139 delread~ \$0-comb7left;
#X obj 412 249 delwrite~ \$0-comb7left 100;
#X obj 582 249 delwrite~ \$0-comb8left 100;
#X obj 597 139 delread~ \$0-comb8left;
#X connect 0 0 45 0;
#X connect 1 0 0 1;
#X connect 2 0 1 0;
#X connect 2 0 17 0;
#X connect 3 0 46 0;
#X connect 4 0 3 1;
#X connect 5 0 4 0;
#X connect 5 0 17 0;
#X connect 6 0 8 1;
#X connect 7 0 6 0;
#X connect 7 0 17 0;
#X connect 8 0 49 0;
#X connect 9 0 11 1;
#X connect 10 0 9 0;
#X connect 10 0 17 0;
#X connect 11 0 50 0;
#X connect 12 0 2 1;
#X connect 13 0 5 1;
#X connect 14 0 7 1;
#X connect 15 0 10 1;
#X connect 16 0 0 0;
#X connect 16 0 3 0;
#X connect 16 0 8 0;
#X connect 16 0 11 0;
#X connect 18 0 1 1;
#X connect 18 0 4 1;
#X connect 18 0 6 1;
#X connect 18 0 9 1;
#X connect 19 0 18 0;
#X connect 20 0 21 1;
#X connect 21 0 23 0;
#X connect 22 0 21 0;
#X connect 22 1 20 0;
#X connect 23 0 44 0;
#X connect 24 0 40 0;
#X connect 25 0 26 1;
#X connect 26 0 28 0;
#X connect 27 0 26 0;
#X connect 27 1 25 0;
#X connect 28 0 47 0;
#X connect 29 0 41 0;
#X connect 30 0 31 1;
#X connect 31 0 33 0;
#X connect 32 0 31 0;
#X connect 32 1 30 0;
#X connect 33 0 48 0;
#X connect 34 0 42 0;
#X connect 35 0 36 1;
#X connect 36 0 38 0;
#X connect 37 0 36 0;
#X connect 37 1 35 0;
#X connect 38 0 51 0;
#X connect 39 0 43 0;
#X connect 40 0 22 0;
#X connect 41 0 27 0;
#X connect 42 0 32 0;
#X connect 43 0 37 0;
#X connect 44 0 2 0;
#X connect 47 0 5 0;
#X connect 48 0 7 0;
#X connect 51 0 10 0;
#X restore 27 95 pd combfilters-left2;
#X obj 12 117 +~;
#N canvas 429 411 766 293 combfilters-right2 0;
#X obj 72 227 +~;
#X obj 87 205 *~ 0.3;
#X obj 87 183 lop~ 1000;
#X obj 242 227 +~;
#X obj 257 205 *~ 0.3;
#X obj 257 183 lop~ 1000;
#X obj 427 205 *~ 0.3;
#X obj 427 183 lop~ 1000;
#X obj 412 227 +~;
#X obj 597 205 *~ 0.3;
#X obj 597 183 lop~ 1000;
#X obj 582 227 +~;
#X obj 138 161 r \$0-frequency;
#X obj 308 161 r \$0-frequency;
#X obj 478 161 r \$0-frequency;
#X obj 648 161 r \$0-frequency;
#X obj 12 210 inlet~;
#X obj 665 200 outlet~;
#X obj 12 188 clip 0 0.99;
#X obj 12 166 r \$0-room;
#X obj 114 78 samplerate~;
#X obj 87 95 /;
#X obj 87 56 t f b;
#X obj 87 117 * 1000;
#X obj 87 12 loadbang;
#X obj 284 78 samplerate~;
#X obj 257 95 /;
#X obj 257 56 t f b;
#X obj 257 117 * 1000;
#X obj 257 12 loadbang;
#X obj 454 78 samplerate~;
#X obj 427 95 /;
#X obj 427 56 t f b;
#X obj 427 117 * 1000;
#X obj 427 12 loadbang;
#X obj 624 78 samplerate~;
#X obj 597 95 /;
#X obj 597 56 t f b;
#X obj 597 117 * 1000;
#X obj 597 12 loadbang;
#X msg 87 34 1445;
#X msg 257 34 1514;
#X msg 427 34 1580;
#X msg 597 34 1640;
#X obj 87 139 delread~ \$0-comb5right;
#X obj 72 249 delwrite~ \$0-comb5right 100;
#X obj 242 249 delwrite~ \$0-comb6right 100;
#X obj 257 139 delread~ \$0-comb6right;
#X obj 427 139 delread~ \$0-comb7right;
#X obj 412 249 delwrite~ \$0-comb7right 100;
#X obj 582 249 delwrite~ \$0-comb8right 100;
#X obj 597 139 delread~ \$0-comb8right;
#X connect 0 0 45 0;
#X connect 1 0 0 1;
#X connect 2 0 1 0;
#X connect 2 0 17 0;
#X connect 3 0 46 0;
#X connect 4 0 3 1;
#X connect 5 0 4 0;
#X connect 5 0 17 0;
#X connect 6 0 8 1;
#X connect 7 0 6 0;
#X connect 7 0 17 0;
#X connect 8 0 49 0;
#X connect 9 0 11 1;
#X connect 10 0 9 0;
#X connect 10 0 17 0;
#X connect 11 0 50 0;
#X connect 12 0 2 1;
#X connect 13 0 5 1;
#X connect 14 0 7 1;
#X connect 15 0 10 1;
#X connect 16 0 0 0;
#X connect 16 0 3 0;
#X connect 16 0 8 0;
#X connect 16 0 11 0;
#X connect 18 0 1 1;
#X connect 18 0 4 1;
#X connect 18 0 6 1;
#X connect 18 0 9 1;
#X connect 19 0 18 0;
#X connect 20 0 21 1;
#X connect 21 0 23 0;
#X connect 22 0 21 0;
#X connect 22 1 20 0;
#X connect 23 0 44 0;
#X connect 24 0 40 0;
#X connect 25 0 26 1;
#X connect 26 0 28 0;
#X connect 27 0 26 0;
#X connect 27 1 25 0;
#X connect 28 0 47 0;
#X connect 29 0 41 0;
#X connect 30 0 31 1;
#X connect 31 0 33 0;
#X connect 32 0 31 0;
#X connect 32 1 30 0;
#X connect 33 0 48 0;
#X connect 34 0 42 0;
#X connect 35 0 36 1;
#X connect 36 0 38 0;
#X connect 37 0 36 0;
#X connect 37 1 35 0;
#X connect 38 0 51 0;
#X connect 39 0 43 0;
#X connect 40 0 22 0;
#X connect 41 0 27 0;
#X connect 42 0 32 0;
#X connect 43 0 37 0;
#X connect 44 0 2 0;
#X connect 47 0 5 0;
#X connect 48 0 7 0;
#X connect 51 0 10 0;
#X restore 177 95 pd combfilters-right2;
#X obj 162 117 +~;
#N canvas 562 74 448 547 diffusor-right 0;
#X obj 27 156 *~ 0.5;
#X obj 12 178 +~;
#X obj 42 178 -~;
#X obj 12 112 inlet~;
#X obj 57 244 *~ 0.5;
#X obj 42 266 +~;
#X obj 72 266 -~;
#X obj 87 332 *~ 0.5;
#X obj 72 354 +~;
#X obj 102 354 -~;
#X obj 117 420 *~ 0.5;
#X obj 102 445 +~;
#X obj 132 445 -~;
#X obj 132 511 outlet~;
#X obj 132 489 hip~ 5;
#X obj 212 78 samplerate~;
#X obj 185 95 /;
#X obj 185 56 t f b;
#X obj 185 117 * 1000;
#X obj 185 12 loadbang;
#X obj 262 166 samplerate~;
#X obj 235 183 /;
#X obj 235 144 t f b;
#X obj 235 205 * 1000;
#X obj 235 100 loadbang;
#X obj 312 254 samplerate~;
#X obj 285 271 /;
#X obj 285 232 t f b;
#X obj 285 293 * 1000;
#X obj 285 188 loadbang;
#X obj 362 342 samplerate~;
#X obj 335 359 /;
#X obj 335 320 t f b;
#X obj 335 381 * 1000;
#X obj 335 276 loadbang;
#X msg 185 34 248;
#X msg 235 122 579;
#X msg 285 210 464;
#X msg 335 298 364;
#X obj 27 134 delread~ \$0-allpass1right;
#X obj 57 222 delread~ \$0-allpass2right;
#X obj 87 310 delread~ \$0-allpass3right;
#X obj 117 398 delread~ \$0-allpass4right;
#X obj 102 467 delwrite~ \$0-allpass4right 40;
#X obj 72 376 delwrite~ \$0-allpass3right 40;
#X obj 42 288 delwrite~ \$0-allpass2right 40;
#X obj 12 200 delwrite~ \$0-allpass1right 40;
#X connect 0 0 1 1;
#X connect 1 0 46 0;
#X connect 2 0 5 0;
#X connect 2 0 6 1;
#X connect 3 0 1 0;
#X connect 3 0 2 1;
#X connect 4 0 5 1;
#X connect 5 0 45 0;
#X connect 6 0 8 0;
#X connect 6 0 9 1;
#X connect 7 0 8 1;
#X connect 8 0 44 0;
#X connect 9 0 11 0;
#X connect 9 0 12 1;
#X connect 10 0 11 1;
#X connect 11 0 43 0;
#X connect 12 0 14 0;
#X connect 14 0 13 0;
#X connect 15 0 16 1;
#X connect 16 0 18 0;
#X connect 17 0 16 0;
#X connect 17 1 15 0;
#X connect 18 0 39 0;
#X connect 19 0 35 0;
#X connect 20 0 21 1;
#X connect 21 0 23 0;
#X connect 22 0 21 0;
#X connect 22 1 20 0;
#X connect 23 0 40 0;
#X connect 24 0 36 0;
#X connect 25 0 26 1;
#X connect 26 0 28 0;
#X connect 27 0 26 0;
#X connect 27 1 25 0;
#X connect 28 0 41 0;
#X connect 29 0 37 0;
#X connect 30 0 31 1;
#X connect 31 0 33 0;
#X connect 32 0 31 0;
#X connect 32 1 30 0;
#X connect 33 0 42 0;
#X connect 34 0 38 0;
#X connect 35 0 17 0;
#X connect 36 0 22 0;
#X connect 37 0 27 0;
#X connect 38 0 32 0;
#X connect 39 0 0 0;
#X connect 39 0 2 0;
#X connect 40 0 4 0;
#X connect 40 0 6 0;
#X connect 41 0 7 0;
#X connect 41 0 9 0;
#X connect 42 0 10 0;
#X connect 42 0 12 0;
#X restore 162 139 pd diffusor-right;
#X obj 162 34 +~;
#X connect 0 0 13 0;
#X connect 1 0 5 0;
#X connect 2 0 0 0;
#X connect 2 0 11 0;
#X connect 2 0 12 0;
#X connect 2 0 14 0;
#X connect 3 0 17 0;
#X connect 4 0 17 1;
#X connect 7 0 9 0;
#X connect 8 0 10 0;
#X connect 11 0 15 0;
#X connect 12 0 13 1;
#X connect 13 0 1 0;
#X connect 14 0 15 1;
#X connect 15 0 16 0;
#X connect 16 0 6 0;
#X connect 17 0 2 0;
#X restore 590 677 pd vfreeverb~;
#X floatatom 601 291 5 0 0 0 - - - 0;
#X obj 700 204 bng 19 250 50 0 empty empty empty 0 -10 0 12 #fcfcfc #000000 #000000;
#X obj 694 402 *~;
#X obj 601 422 *~;
#X obj 601 314 mtof;
#X obj 601 338 synth;
#X obj 700 251 f;
#X obj 725 221 nbx 4 14 0.1 1000 1 1 empty empty attack 0 -8 0 10 #fcfcfc #000000 #000000 220.674 256;
#X text 774 221 ms;
#X obj 861 283 nbx 4 14 10 10000 1 1 empty empty decay 0 -8 0 10 #fcfcfc #000000 #000000 2525.48 256;
#X text 918 282 ms;
#X obj 700 362 vline~;
#X obj 601 446 *~ 0.8;
#X obj 700 305 pack f f f;
#X obj 776 276 +;
#X msg 700 334 1 \$1 \, 0 \$3 \$2;
#X obj 839 231 nbx 4 14 10 10000 1 1 empty empty Sustain 0 -8 0 10 #fcfcfc #000000 #000000 342.891 256;
#X text 893 227 ms;
#X obj 788 161 inlet;
#X obj 864 166 inlet;
#X obj 1021 209 inlet;
#X connect 0 0 8 0;
#X connect 0 0 7 0;
#X connect 2 0 4 0;
#X connect 2 0 6 2;
#X connect 3 0 5 0;
#X connect 3 0 6 3;
#X connect 6 0 1 0;
#X connect 6 1 1 0;
#X connect 7 0 11 0;
#X connect 8 0 13 0;
#X connect 9 0 10 1;
#X connect 10 0 19 0;
#X connect 11 0 12 0;
#X connect 12 0 10 0;
#X connect 13 0 20 0;
#X connect 13 0 21 0;
#X connect 14 0 13 1;
#X connect 16 0 20 2;
#X connect 18 0 9 0;
#X connect 18 0 9 1;
#X connect 19 0 6 0;
#X connect 19 0 6 1;
#X connect 20 0 22 0;
#X connect 21 0 20 1;
#X connect 22 0 18 0;
#X connect 23 0 21 1;
#X connect 25 0 14 0;
#X connect 26 0 23 0;
#X connect 27 0 16 0;
#X restore 476 454 pd monosynth;
#X obj 873 297 bng 19 250 50 0 empty empty empty 0 -10 0 12 #fcfcfc #000000 #000000;
#X obj 962 298 bng 19 250 50 0 empty empty empty 0 -10 0 12 #fcfcfc #000000 #000000;
#X obj 417 158 route 0 1 2 3 4 5 6 7 8 9;
#X obj 444 559 dac~;
#X msg 277 318 40;
#X msg 355 318 42;
#X msg 438 319 43;
#X msg 962 322 31;
#X msg 873 321 29;
#X obj 474 500 *~ 0.7;
#X msg 783 318 38;
#X msg 705 318 37;
#X msg 627 318 36;
#X msg 565 318 35;
#X msg 497 318 33;
#X connect 0 0 15 0;
#X connect 1 0 16 0;
#X connect 2 0 17 0;
#X connect 3 0 25 0;
#X connect 4 0 24 0;
#X connect 5 0 23 0;
#X connect 6 0 22 0;
#X connect 7 0 21 0;
#X connect 8 0 9 0;
#X connect 8 0 13 0;
#X connect 10 0 20 0;
#X connect 11 0 19 0;
#X connect 12 0 18 0;
#X connect 13 0 0 0;
#X connect 13 1 1 0;
#X connect 13 2 2 0;
#X connect 13 3 3 0;
#X connect 13 4 4 0;
#X connect 13 5 5 0;
#X connect 13 6 6 0;
#X connect 13 7 7 0;
#X connect 13 8 11 0;
#X connect 13 9 12 0;
#X connect 15 0 10 0;
#X connect 16 0 10 0;
#X connect 17 0 10 0;
#X connect 18 0 10 0;
#X connect 19 0 10 0;
#X connect 20 0 14 0;
#X connect 20 0 14 1;
#X connect 21 0 10 0;
#X connect 22 0 10 0;
#X connect 23 0 10 0;
#X connect 24 0 10 0;
#X connect 25 0 10 0;
