#N canvas 229 531 450 300 10;
#X obj 34 169 *~;
#X obj 34 190 +~ 27;
#X obj 94 157 *~;
#X obj 94 178 *~ 9;
#X obj 16 212 *~;
#X obj 16 247 /~;
#X obj 95 201 +~ 27;
#X obj 16 270 outlet~;
#X obj 16 97 clip~ -3 3;
#X obj 17 39 inlet~;
#X text 18 10 tanh(x) ~= x*(27+x*x) / (27+9*x*x);
#X obj 90 50 inlet;
#X obj 17 66 *~ 1;
#X connect 0 0 1 0;
#X connect 1 0 4 1;
#X connect 2 0 3 0;
#X connect 3 0 6 0;
#X connect 4 0 5 0;
#X connect 5 0 7 0;
#X connect 6 0 5 1;
#X connect 8 0 4 0;
#X connect 8 0 0 0;
#X connect 8 0 0 1;
#X connect 8 0 2 0;
#X connect 8 0 2 1;
#X connect 9 0 12 0;
#X connect 11 0 12 1;
#X connect 12 0 8 0;
