#N canvas 3868 233 2482 1037 10;
#X obj 222 53 % 8;
#X obj 104 137 tgl 15 0 empty empty empty 17 7 0 10 #fcfcfc #fc0400 #000000 0 1;
#X obj 124 137 tgl 15 0 empty empty empty 17 7 0 10 #fcfcfc #fc0400 #000000 0 1;
#X obj 144 137 tgl 15 0 empty empty empty 17 7 0 10 #fcfcfc #fc0400 #000000 0 1;
#X obj 164 137 tgl 15 0 empty empty empty 17 7 0 10 #fcfcfc #fc0400 #000000 0 1;
#X obj 184 137 tgl 15 0 empty empty empty 17 7 0 10 #fcfcfc #fc0400 #000000 0 1;
#X obj 204 137 tgl 15 0 empty empty empty 17 7 0 10 #fcfcfc #fc0400 #000000 0 1;
#X obj 224 137 tgl 15 0 empty empty empty 17 7 0 10 #fcfcfc #fc0400 #000000 0 1;
#X obj 244 137 tgl 15 0 empty empty empty 17 7 0 10 #fcfcfc #fc0400 #000000 0 1;
#X obj 89 196 int;
#X obj 89 217 spigot;
#X obj 119 196 int;
#X obj 119 217 spigot;
#X obj 149 196 int;
#X obj 149 217 spigot;
#X obj 179 196 int;
#X obj 179 217 spigot;
#X obj 229 196 int;
#X obj 259 196 int;
#X obj 259 227 spigot;
#X obj 289 196 int;
#X obj 289 217 spigot;
#X obj 319 196 int;
#X obj 319 217 spigot;
#X obj 222 78 sel 0 1 2 3 4 5 6 7;
#X obj 229 217 spigot;
#X floatatom 173 113 5 1 32 2 steps - - 0;
#X obj 415 90 loadbang;
#X msg 421 143 8;
#X obj 104 176 bng 10 250 50 0 empty empty empty 17 7 0 10 #fcfcfc #000000 #000000;
#X obj 124 176 bng 10 250 50 0 empty empty empty 17 7 0 10 #fcfcfc #000000 #000000;
#X obj 144 176 bng 10 250 50 0 empty empty empty 17 7 0 10 #fcfcfc #000000 #000000;
#X obj 164 176 bng 10 250 50 0 empty empty empty 17 7 0 10 #fcfcfc #000000 #000000;
#X obj 184 176 bng 10 250 50 0 empty empty empty 17 7 0 10 #fcfcfc #000000 #000000;
#X obj 204 176 bng 10 250 50 0 empty empty empty 17 7 0 10 #fcfcfc #000000 #000000;
#X obj 224 176 bng 10 250 50 0 empty empty empty 17 7 0 10 #fcfcfc #000000 #000000;
#X obj 244 176 bng 10 250 50 0 empty empty empty 17 7 0 10 #fcfcfc #000000 #000000;
#X obj 24 373 outlet;
#X obj 70 373 outlet;
#X obj 116 374 outlet;
#X obj 162 374 outlet;
#X obj 207 374 outlet;
#X obj 253 374 outlet;
#X obj 299 375 outlet;
#X obj 345 375 outlet;
#X obj 394 375 outlet;
#X obj 56 148 sel 0;
#X obj 222 27 i;
#X obj 255 26 + 1;
#X msg 56 172 8;
#X obj 136 25 inlet steps;
#X obj 106 105 bng 24 250 50 0 empty empty empty 0 -8 0 10 #fcfcfc #000000 #000000;
#X obj 45 24 inlet trigger;
#X obj 687 331 spigot;
#X obj 278 109 tgl 16 0 empty empty empty 0 -8 0 10 #fcfcfc #000000 #000000 0 1;
#X floatatom 618 166 5 0 0 0 - - - 0;
#X msg 618 145 0;
#X obj 616 120 bng 16 250 50 0 empty empty empty 0 -8 0 10 #fcfcfc #000000 #000000;
#X obj 321 23 inlet on/off;
#X connect 0 0 24 0;
#X connect 1 0 10 1;
#X connect 2 0 12 1;
#X connect 3 0 14 1;
#X connect 4 0 16 1;
#X connect 5 0 25 1;
#X connect 6 0 19 1;
#X connect 7 0 21 1;
#X connect 8 0 23 1;
#X connect 9 0 10 0;
#X connect 10 0 29 0;
#X connect 11 0 12 0;
#X connect 12 0 30 0;
#X connect 13 0 14 0;
#X connect 14 0 31 0;
#X connect 15 0 16 0;
#X connect 16 0 32 0;
#X connect 17 0 25 0;
#X connect 18 0 19 0;
#X connect 19 0 34 0;
#X connect 20 0 21 0;
#X connect 21 0 35 0;
#X connect 22 0 23 0;
#X connect 23 0 36 0;
#X connect 24 0 9 0;
#X connect 24 1 11 0;
#X connect 24 2 13 0;
#X connect 24 3 15 0;
#X connect 24 4 17 0;
#X connect 24 5 18 0;
#X connect 24 6 20 0;
#X connect 24 7 22 0;
#X connect 25 0 33 0;
#X connect 26 0 0 1;
#X connect 27 0 28 0;
#X connect 27 0 1 0;
#X connect 27 0 2 0;
#X connect 27 0 3 0;
#X connect 27 0 4 0;
#X connect 27 0 5 0;
#X connect 27 0 6 0;
#X connect 27 0 7 0;
#X connect 27 0 8 0;
#X connect 28 0 26 0;
#X connect 29 0 37 0;
#X connect 29 0 45 0;
#X connect 30 0 38 0;
#X connect 30 0 45 0;
#X connect 31 0 39 0;
#X connect 31 0 45 0;
#X connect 32 0 40 0;
#X connect 32 0 45 0;
#X connect 33 0 41 0;
#X connect 33 0 45 0;
#X connect 34 0 42 0;
#X connect 34 0 45 0;
#X connect 35 0 43 0;
#X connect 35 0 45 0;
#X connect 36 0 44 0;
#X connect 36 0 45 0;
#X connect 46 0 49 0;
#X connect 47 0 0 0;
#X connect 47 0 48 0;
#X connect 48 0 47 1;
#X connect 49 0 47 1;
#X connect 50 0 26 0;
#X connect 51 0 53 0;
#X connect 52 0 51 0;
#X connect 53 0 47 0;
#X connect 54 0 53 1;
#X connect 54 0 57 0;
#X connect 55 0 47 1;
#X connect 56 0 55 0;
#X connect 57 0 56 0;
#X connect 58 0 54 0;
#X coords 0 -1 1 1 205 90 2 100 100;
