#N canvas 2660 66 2482 1037 12;
#X floatatom 540 248 5 0 0 0 - - - 0;
#X obj 466 155 loadbang;
#X obj 459 258 bng 19 250 50 0 empty empty empty 0 -10 0 12 #fcfcfc #000000 #000000;
#X obj 459 286 /;
#X floatatom 459 314 5 0 0 0 - - - 0;
#X obj 459 341 send 4th_time;
#X obj 41 451 receive ON;
#X obj 160 451 receive 4th_time;
#X obj 160 483 * 4;
#X floatatom 160 515 5 0 0 0 - - - 0;
#X obj 160 546 send whole_time;
#X obj 98 539 metro;
#X obj 98 571 bng 19 250 50 0 empty empty empty 0 -10 0 12 #fcfcfc #000000 #000000;
#X obj 98 603 send whole_note;
#X obj 639 452 receive ON;
#X obj 794 452 receive 4th_time;
#X floatatom 794 516 5 0 0 0 - - - 0;
#X obj 725 540 metro;
#X obj 725 572 bng 19 250 50 0 empty empty empty 0 -10 0 12 #fcfcfc #000000 #000000;
#X obj 794 484 * 1;
#X obj 725 604 send 4th_note;
#X obj 97 154 tgl 19 0 empty empty empty 0 -10 0 12 #fcfcfc #000000 #000000 0 1;
#X obj 95 211 send ON;
#X msg 397 211 60000;
#X obj 324 451 receive ON;
#X obj 479 451 receive 4th_time;
#X floatatom 479 515 5 0 0 0 - - - 0;
#X obj 410 539 metro;
#X obj 410 571 bng 19 250 50 0 empty empty empty 0 -10 0 12 #fcfcfc #000000 #000000;
#X obj 410 603 send half_note;
#X obj 479 483 * 2;
#X obj 466 184 t b b b;
#X obj 269 824 CREE_markov;
#X obj 735 748 CREE_markov_Melody;
#X obj 529 766 CREE_markov_Melody;
#X msg 540 211 64;
#N canvas 4349 349 2482 1037 drums 1;
#X obj 269 765 catch~ \$0-output;
#X obj 269 802 /~ 5;
#X obj 270 842 dac~ 1 2;
#X obj 289 486 bng 15 250 50 0 empty empty empty 17 7 0 10 #fcfcfc #000000 #000000;
#X msg 289 506 0 \, 1 200;
#X obj 288 538 line~;
#X obj 287 564 sqrt~;
#X obj 288 647 cos~;
#X obj 283 734 throw~ \$0-output;
#X obj 287 592 *~ 20;
#X obj 285 682 lop~ 700;
#X text 285 457 Drum Kick;
#X obj 534 483 bng 15 250 50 0 empty empty empty 17 7 0 10 #fcfcfc #000000 #000000;
#X obj 535 509 t b b, f 6;
#X msg 535 539 1 \, 0 100;
#X msg 705 539 1 \, 0 100;
#X obj 535 566 line~;
#X obj 534 593 pow~ 4;
#X obj 535 626 *~;
#X obj 535 650 +~;
#X obj 535 674 lop~ 4000;
#X obj 705 564 line~;
#X obj 706 590 pow~ 4;
#X obj 706 622 *~;
#X obj 802 540 noise~;
#X obj 802 564 hip~ 3000;
#X obj 802 588 bp~ 5000 2;
#X obj 535 722 throw~ \$0-output;
#X obj 609 592 osc~ 150;
#X text 527 455 Drum snare;
#X text 1012 465 hi-hat;
#X obj 1016 497 bng 15 250 50 0 empty empty empty 17 7 0 10 #fcfcfc #000000 #000000;
#X msg 1016 531 1 \, 0 100;
#X obj 1016 562 line~;
#X obj 1016 586 pow~ 4;
#X obj 1017 710 *~;
#X obj 1017 735 *~ 4;
#X obj 1136 531 phasor~ 350;
#X obj 1136 555 *~ 2;
#X obj 1136 579 -~ 1;
#X obj 1136 615 +~;
#X obj 1244 555 *~ 2;
#X obj 1244 579 -~ 1;
#X obj 1244 531 phasor~ 800;
#X obj 1136 645 hip~ 8000;
#X obj 1136 669 hip~ 8000;
#X obj 1135 694 hip~ 8000;
#X obj 1018 780 throw~ \$0-output;
#X obj 288 623 -~ 0.55;
#X obj 308 273 mod_seq;
#X obj 727 261 mod_seq;
#X obj 528 88 inlet 8th;
#X obj 724 100 inlet 16th;
#X msg 819 206 16;
#X obj 819 171 loadbang;
#X connect 0 0 1 0;
#X connect 1 0 2 0;
#X connect 1 0 2 1;
#X connect 3 0 4 0;
#X connect 4 0 5 0;
#X connect 5 0 6 0;
#X connect 6 0 9 0;
#X connect 7 0 10 0;
#X connect 9 0 48 0;
#X connect 10 0 8 0;
#X connect 12 0 13 0;
#X connect 13 0 14 0;
#X connect 13 1 15 0;
#X connect 14 0 16 0;
#X connect 15 0 21 0;
#X connect 16 0 17 0;
#X connect 17 0 18 0;
#X connect 18 0 19 0;
#X connect 19 0 20 0;
#X connect 20 0 27 0;
#X connect 21 0 22 0;
#X connect 22 0 23 0;
#X connect 23 0 19 1;
#X connect 24 0 25 0;
#X connect 25 0 26 0;
#X connect 26 0 23 1;
#X connect 28 0 18 1;
#X connect 31 0 32 0;
#X connect 32 0 33 0;
#X connect 33 0 34 0;
#X connect 34 0 35 0;
#X connect 35 0 36 0;
#X connect 36 0 47 0;
#X connect 37 0 38 0;
#X connect 38 0 39 0;
#X connect 39 0 40 0;
#X connect 40 0 44 0;
#X connect 41 0 42 0;
#X connect 42 0 40 1;
#X connect 43 0 41 0;
#X connect 44 0 45 0;
#X connect 45 0 46 0;
#X connect 46 0 35 1;
#X connect 48 0 7 0;
#X connect 49 0 3 0;
#X connect 49 1 3 0;
#X connect 49 2 12 0;
#X connect 49 2 3 0;
#X connect 49 4 3 0;
#X connect 49 6 12 0;
#X connect 50 0 31 0;
#X connect 50 3 31 0;
#X connect 50 4 31 0;
#X connect 51 0 49 0;
#X connect 52 0 50 0;
#X connect 53 0 50 1;
#X connect 54 0 53 0;
#X connect 54 0 49 2;
#X connect 54 0 50 2;
#X restore 1010 672 pd drums;
#X obj 938 449 receive ON;
#X obj 1093 449 receive 4th_time;
#X floatatom 1093 513 5 0 0 0 - - - 0;
#X obj 1024 537 metro;
#X obj 1024 569 bng 19 250 50 0 empty empty empty 0 -10 0 12 #fcfcfc #000000 #000000;
#X obj 1093 481 * 0.5;
#X obj 1024 601 send 8th_note;
#X obj 1243 448 receive ON;
#X obj 1398 448 receive 4th_time;
#X floatatom 1398 512 5 0 0 0 - - - 0;
#X obj 1329 536 metro;
#X obj 1329 568 bng 19 250 50 0 empty empty empty 0 -10 0 12 #fcfcfc #000000 #000000;
#X obj 1398 480 * 0.25;
#X obj 1329 600 send 16th_note;
#X obj 80 755 CREE_markov_Bass;
#X text 795 178 Drum Kick;
#X obj 649 18 netreceive -u 12347;
#X obj 651 64 route Breaths:;
#X obj 646 112 unpack 0 string 0;
#X floatatom 643 157 5 0 0 0 - - - 0;
#X floatatom 755 148 5 0 0 0 - - - 0;
#X text 754 170 RPM;
#X obj 817 110 unpack 0 string 0;
#X obj 822 62 route BEATS;
#X floatatom 808 147 5 0 0 0 - - - 0;
#X floatatom 920 138 5 0 0 0 - - - 0;
#X text 919 160 RPM;
#X connect 0 0 2 0;
#X connect 0 0 3 1;
#X connect 1 0 31 0;
#X connect 2 0 3 0;
#X connect 3 0 4 0;
#X connect 4 0 5 0;
#X connect 6 0 11 0;
#X connect 7 0 8 0;
#X connect 8 0 9 0;
#X connect 9 0 10 0;
#X connect 9 0 11 1;
#X connect 11 0 12 0;
#X connect 12 0 13 0;
#X connect 14 0 17 0;
#X connect 15 0 19 0;
#X connect 16 0 17 1;
#X connect 17 0 18 0;
#X connect 18 0 20 0;
#X connect 18 0 33 0;
#X connect 19 0 16 0;
#X connect 21 0 22 0;
#X connect 23 0 3 0;
#X connect 24 0 27 0;
#X connect 25 0 30 0;
#X connect 26 0 27 1;
#X connect 27 0 28 0;
#X connect 28 0 29 0;
#X connect 28 0 32 0;
#X connect 30 0 26 0;
#X connect 31 0 23 0;
#X connect 31 1 0 0;
#X connect 31 2 35 0;
#X connect 35 0 0 0;
#X connect 37 0 40 0;
#X connect 38 0 42 0;
#X connect 39 0 40 1;
#X connect 40 0 41 0;
#X connect 41 0 43 0;
#X connect 41 0 36 0;
#X connect 42 0 39 0;
#X connect 44 0 47 0;
#X connect 45 0 49 0;
#X connect 46 0 47 1;
#X connect 47 0 48 0;
#X connect 48 0 50 0;
#X connect 48 0 36 1;
#X connect 49 0 46 0;
#X connect 53 0 54 0;
#X connect 53 0 60 0;
#X connect 54 0 55 0;
#X connect 55 0 56 0;
#X connect 55 2 57 0;
#X connect 57 0 0 0;
#X connect 59 0 61 0;
#X connect 59 2 62 0;
#X connect 60 0 59 0;
