#N canvas 637 194 758 589 12;
#X obj 223 83 osc~ 440;
#X floatatom 225 33 5 0 0 0 - - - 0;
#X floatatom 377 129 5 0 0 0 - - - 0;
#X obj 229 321 dac~;
#X obj 383 183 osc~;
#X obj 365 69 * 2;
#X floatatom 474 129 5 0 0 0 - - - 0;
#X obj 480 183 osc~;
#X floatatom 581 122 5 0 0 0 - - - 0;
#X obj 587 176 osc~;
#X obj 462 69 * 3;
#X obj 569 62 * 4;
#X obj 231 269 *~ 0.5;
#X obj 593 237 *~ 0.08;
#X obj 482 222 *~ 0.1;
#X obj 382 217 *~ 0.2;
#X connect 0 0 12 0;
#X connect 1 0 0 0;
#X connect 1 0 5 0;
#X connect 1 0 10 0;
#X connect 1 0 11 0;
#X connect 2 0 4 0;
#X connect 4 0 15 0;
#X connect 5 0 2 0;
#X connect 6 0 7 0;
#X connect 7 0 14 0;
#X connect 8 0 9 0;
#X connect 9 0 13 0;
#X connect 10 0 6 0;
#X connect 11 0 8 0;
#X connect 12 0 3 0;
#X connect 12 0 3 1;
#X connect 13 0 12 0;
#X connect 14 0 12 0;
#X connect 15 0 12 0;
