#N canvas 1111 187 758 589 12;
#X floatatom 226 32 5 0 0 0 - - - 0;
#X floatatom 377 129 5 0 0 0 - - - 0;
#X floatatom 474 129 5 0 0 0 - - - 0;
#X floatatom 581 122 5 0 0 0 - - - 0;
#X floatatom 282 97 5 0 100 0 - - - 0;
#X obj 223 126 bad-osc;
#X obj 383 183 bad-osc;
#X obj 480 183 bad-osc;
#X obj 587 176 bad-osc;
#X obj 220 205 diytanh_;
#X floatatom 667 121 5 0 0 0 - - - 0;
#X obj 673 175 bad-osc;
#X obj 384 207 diytanh_;
#X obj 480 207 diytanh_;
#X obj 225 4 inlet;
#X obj 328 509 outlet~;
#X obj 330 443 diytanh_;
#X obj 589 304 *~ 0.08;
#X obj 478 289 *~ 0.2;
#X obj 587 200 diytanh_;
#X obj 330 392 *~ 1;
#X obj 223 150 *~ 2;
#X obj 317 27 loadbang;
#X obj 379 270 *~ 0.3;
#X obj 569 62 * 3.98;
#X obj 655 61 * 5;
#X obj 365 69 * 2.01;
#X obj 462 69 * 3.01;
#X obj 675 301 *~ 0.1;
#X msg 282 72 10;
#X connect 0 0 5 0;
#X connect 0 0 24 0;
#X connect 0 0 25 0;
#X connect 0 0 26 0;
#X connect 0 0 27 0;
#X connect 1 0 6 0;
#X connect 2 0 7 0;
#X connect 3 0 8 0;
#X connect 4 0 5 1;
#X connect 4 0 6 1;
#X connect 4 0 7 1;
#X connect 5 0 21 0;
#X connect 6 0 12 0;
#X connect 7 0 13 0;
#X connect 8 0 19 0;
#X connect 9 0 20 0;
#X connect 10 0 11 0;
#X connect 11 0 28 0;
#X connect 12 0 23 0;
#X connect 13 0 18 0;
#X connect 14 0 0 0;
#X connect 16 0 15 0;
#X connect 17 0 20 0;
#X connect 18 0 20 0;
#X connect 19 0 17 0;
#X connect 20 0 16 0;
#X connect 21 0 9 0;
#X connect 22 0 29 0;
#X connect 23 0 20 0;
#X connect 24 0 3 0;
#X connect 25 0 10 0;
#X connect 26 0 1 0;
#X connect 27 0 2 0;
#X connect 28 0 20 0;
#X connect 29 0 4 0;
