#N canvas 6 123 478 587 12;
#X obj 19 380 loadbang;
#X msg 19 405 seed 42;
#X obj 19 430 noise~;
#X obj 19 457 *~;
#X obj 94 407 osc~ 1;
#X obj 94 432 *~ 0;
#X floatatom 99 343 5 0 0 0 - - -;
#X msg 161 332 1;
#X obj 212 398 dbtorms;
#X floatatom 212 361 5 0 100 0 - - -;
#X obj 28 33 netreceive -u 12347;
#X obj 99 375 / 100;
#X obj 28 84 route Beats;
#X obj 23 131 unpack 0 string 0;
#X obj 203 86 route Breaths:;
#X obj 198 134 unpack 0 string 0;
#X floatatom 25 180 5 0 0 0 - - -;
#X floatatom 129 177 5 0 0 0 - - -;
#X floatatom 195 179 5 0 0 0 - - -;
#X floatatom 307 170 5 0 0 0 - - -;
#X text 21 223 Heartbeat detection;
#X text 134 198 BPM;
#X text 306 192 RPM;
#X text 196 207 Respiration detection;
#X floatatom 392 168 5 0 0 0 - - -;
#X obj 401 77 route GSR;
#X text 399 186 GSR;
#X obj 161 540 dac~;
#X floatatom 125 262 5 0 0 0 - - -;
#X obj 172 294 bng 15 250 50 0 empty empty empty 17 7 0 10 -262144
-1 -1;
#X obj 287 343 pentatonic-generator;
#X floatatom 289 300 5 0 0 0 - - -;
#X obj 367 420 dbtorms;
#X floatatom 357 387 5 0 100 0 - - -;
#X floatatom 380 469 10 0 0 0 - - -;
#X obj 314 438 * 3;
#X obj 104 297 / 4;
#X floatatom 300 391 5 0 0 0 - - -;
#X obj 182 256 change 0;
#X obj 269 489 *~ 1;
#X connect 0 0 1 0;
#X connect 1 0 2 0;
#X connect 2 0 3 0;
#X connect 3 0 27 0;
#X connect 4 0 5 0;
#X connect 5 0 3 1;
#X connect 6 0 11 0;
#X connect 7 0 4 1;
#X connect 8 0 5 1;
#X connect 9 0 8 0;
#X connect 10 0 12 0;
#X connect 10 0 14 0;
#X connect 10 0 25 0;
#X connect 11 0 4 0;
#X connect 12 0 13 0;
#X connect 13 0 16 0;
#X connect 13 2 17 0;
#X connect 14 0 15 0;
#X connect 15 0 18 0;
#X connect 15 2 19 0;
#X connect 16 0 38 0;
#X connect 17 0 36 0;
#X connect 25 0 24 0;
#X connect 28 0 36 1;
#X connect 29 0 7 0;
#X connect 30 0 39 0;
#X connect 31 0 30 0;
#X connect 32 0 34 0;
#X connect 32 0 35 0;
#X connect 33 0 32 0;
#X connect 35 0 39 1;
#X connect 36 0 6 0;
#X connect 37 0 39 1;
#X connect 38 0 29 0;
#X connect 39 0 27 1;
