#N canvas 45 37 1425 792 12;
#X obj 90 640 dac~;
#X obj 30 470 osc~;
#X floatatom 50 280 5 0 0 0 - - - 0 0 1, f 5;
#X msg 50 240 61;
#X msg 90 240 63;
#X msg 130 240 66;
#X msg 170 240 68;
#X msg 210 240 70, f 5;
#X obj 70 50 bng 15 250 50 0 empty empty empty 17 7 0 10 #fcfcfc #000000
#000000 1;
#X floatatom 70 100 5 0 0 0 - - - 0 0 1, f 5;
#X obj 60 -10 tgl 15 0 empty empty empty 17 7 0 10 #fcfcfc #000000
#000000 1 1 1;
#X obj 70 70 random 100;
#X obj 680 140 bng 15 250 50 0 empty empty empty 17 7 0 10 #fcfcfc
#000000 #000000 1;
#X obj 140 140 bng 15 250 50 0 empty empty empty 17 7 0 10 #fcfcfc
#000000 #000000 1;
#X obj 30 440 mtof;
#X obj 50 180 random 5;
#X obj 50 210 select 1 2 3 4 5;
#X obj 680 360 osc~;
#X floatatom 680 260 5 0 0 0 - - - 0 0 1, f 5;
#X msg 680 220 61;
#X msg 720 220 63;
#X msg 760 220 66;
#X msg 800 220 68;
#X msg 840 220 70, f 5;
#X obj 680 320 mtof;
#X obj 680 160 random 5;
#X obj 680 190 select 1 2 3 4 5;
#X obj 950 100 bng 15 250 50 0 empty empty empty 17 7 0 10 #fcfcfc
#000000 #000000 1;
#X obj 910 360 osc~;
#X floatatom 920 260 5 0 0 0 - - - 0 0 1, f 5;
#X msg 920 220 61;
#X msg 960 220 63;
#X msg 1000 220 66;
#X msg 1040 220 68;
#X msg 1080 220 70, f 5;
#X obj 920 320 mtof;
#X obj 920 160 random 5;
#X obj 920 190 select 1 2 3 4 5;
#X obj 680 290 - 12;
#X obj 920 290 - 24;
#X obj 350 60 moses 50;
#X obj 780 100 random 100;
#X obj 780 140 moses 80;
#X obj 670 410 *~ 0.2;
#X obj 900 420 *~ 0.3;
#X obj 390 370 osc~;
#X obj 380 480 *~ 0.1;
#X floatatom 400 290 5 0 0 0 - - - 0 0 1, f 5;
#X msg 400 250 61;
#X msg 440 250 63;
#X msg 480 250 66;
#X msg 520 250 68;
#X msg 560 250 70, f 5;
#X obj 390 340 mtof;
#X obj 400 190 random 5;
#X obj 400 220 select 1 2 3 4 5;
#X obj 330 130 moses 25;
#X floatatom 410 100 5 0 0 0 - - - 0 0 1, f 5;
#X obj 400 160 bng 15 250 50 0 empty empty empty 17 7 0 10 #fcfcfc
#000000 #000000 1;
#X floatatom 350 90 5 0 0 0 - - - 0 0 1, f 5;
#X obj 80 570 *~;
#X obj 520 400 line 0 20;
#X floatatom 520 430 5 0 0 0 - - - 0 0 1, f 5;
#X obj 520 460 / 1000;
#X floatatom 520 520 5 0 0 0 - - - 0 0 1, f 5;
#X msg 520 370 1000 2000;
#X msg 600 370 0 200;
#X obj 520 340 delay 200;
#X obj 490 300 t b b b;
#X msg 460 370 0 2000;
#X obj 440 340 delay 2200;
#X obj 190 390 line 0 20;
#X floatatom 190 420 5 0 0 0 - - - 0 0 1, f 5;
#X obj 190 450 / 1000;
#X floatatom 190 510 5 0 0 0 - - - 0 0 1, f 5;
#X msg 190 360 1000 2000;
#X msg 270 360 0 200;
#X obj 190 330 delay 200;
#X obj 160 290 t b b b;
#X msg 130 360 0 2000;
#X obj 800 420 line 0 20;
#X floatatom 800 450 5 0 0 0 - - - 0 0 1, f 5;
#X obj 800 480 / 1000;
#X obj 800 510 / 10;
#X floatatom 800 540 5 0 0 0 - - - 0 0 1, f 5;
#X msg 880 390 0 200;
#X obj 800 360 delay 200;
#X obj 770 320 t b b b;
#X obj 1050 370 line 0 20;
#X floatatom 1050 400 5 0 0 0 - - - 0 0 1, f 5;
#X obj 1050 430 / 1000;
#X obj 1050 460 / 10;
#X floatatom 1050 490 5 0 0 0 - - - 0 0 1, f 5;
#X msg 1130 340 0 200;
#X obj 1050 310 delay 200;
#X obj 1020 270 t b b b;
#X obj 720 360 delay 3200;
#X obj 110 330 delay 1200;
#X obj 70 20 metro 4000;
#X obj 230 30 moses 90;
#X obj 520 490 / 15;
#X msg 1050 340 1000 8000;
#X obj 970 310 delay 9200;
#X msg 990 340 0 4000;
#X msg 800 390 1000 6000;
#X msg 740 390 0 3000;
#X obj 30 410 + 12;
#X obj 190 480 / 25;
#X connect 1 0 60 0;
#X connect 2 0 106 0;
#X connect 3 0 2 0;
#X connect 4 0 2 0;
#X connect 5 0 2 0;
#X connect 6 0 2 0;
#X connect 7 0 2 0;
#X connect 8 0 11 0;
#X connect 9 0 99 0;
#X connect 10 0 98 0;
#X connect 11 0 9 0;
#X connect 12 0 25 0;
#X connect 12 0 87 0;
#X connect 13 0 15 0;
#X connect 13 0 78 0;
#X connect 14 0 1 0;
#X connect 15 0 16 0;
#X connect 16 0 3 0;
#X connect 16 1 4 0;
#X connect 16 2 5 0;
#X connect 16 3 6 0;
#X connect 16 4 7 0;
#X connect 17 0 43 0;
#X connect 18 0 38 0;
#X connect 19 0 18 0;
#X connect 20 0 18 0;
#X connect 21 0 18 0;
#X connect 22 0 18 0;
#X connect 23 0 18 0;
#X connect 24 0 17 0;
#X connect 25 0 26 0;
#X connect 26 0 19 0;
#X connect 26 1 20 0;
#X connect 26 2 21 0;
#X connect 26 3 22 0;
#X connect 26 4 23 0;
#X connect 27 0 36 0;
#X connect 27 0 95 0;
#X connect 28 0 44 0;
#X connect 29 0 39 0;
#X connect 30 0 29 0;
#X connect 31 0 29 0;
#X connect 32 0 29 0;
#X connect 33 0 29 0;
#X connect 34 0 29 0;
#X connect 35 0 28 0;
#X connect 36 0 37 0;
#X connect 37 0 30 0;
#X connect 37 1 31 0;
#X connect 37 2 32 0;
#X connect 37 3 33 0;
#X connect 37 4 34 0;
#X connect 38 0 24 0;
#X connect 39 0 35 0;
#X connect 40 0 13 0;
#X connect 40 0 59 0;
#X connect 40 1 12 0;
#X connect 40 1 41 0;
#X connect 40 1 57 0;
#X connect 41 0 42 0;
#X connect 42 1 27 0;
#X connect 43 0 0 0;
#X connect 43 0 0 1;
#X connect 44 0 0 0;
#X connect 44 0 0 1;
#X connect 45 0 46 0;
#X connect 46 0 0 0;
#X connect 46 0 0 1;
#X connect 47 0 53 0;
#X connect 48 0 47 0;
#X connect 49 0 47 0;
#X connect 50 0 47 0;
#X connect 51 0 47 0;
#X connect 52 0 47 0;
#X connect 53 0 45 0;
#X connect 54 0 55 0;
#X connect 55 0 48 0;
#X connect 55 1 49 0;
#X connect 55 2 50 0;
#X connect 55 3 51 0;
#X connect 55 4 52 0;
#X connect 56 1 58 0;
#X connect 58 0 54 0;
#X connect 58 0 68 0;
#X connect 59 0 56 0;
#X connect 60 0 0 0;
#X connect 60 0 0 1;
#X connect 61 0 62 0;
#X connect 62 0 63 0;
#X connect 63 0 100 0;
#X connect 64 0 46 1;
#X connect 65 0 61 0;
#X connect 66 0 61 0;
#X connect 67 0 65 0;
#X connect 68 0 70 0;
#X connect 68 1 67 0;
#X connect 68 2 66 0;
#X connect 69 0 61 0;
#X connect 70 0 69 0;
#X connect 71 0 72 0;
#X connect 72 0 73 0;
#X connect 73 0 107 0;
#X connect 74 0 60 1;
#X connect 75 0 71 0;
#X connect 76 0 71 0;
#X connect 77 0 75 0;
#X connect 78 0 97 0;
#X connect 78 1 77 0;
#X connect 78 2 76 0;
#X connect 79 0 71 0;
#X connect 80 0 81 0;
#X connect 81 0 82 0;
#X connect 82 0 83 0;
#X connect 83 0 84 0;
#X connect 84 0 43 1;
#X connect 85 0 80 0;
#X connect 86 0 104 0;
#X connect 87 0 96 0;
#X connect 87 1 86 0;
#X connect 87 2 85 0;
#X connect 88 0 89 0;
#X connect 89 0 90 0;
#X connect 90 0 91 0;
#X connect 91 0 92 0;
#X connect 92 0 44 1;
#X connect 93 0 88 0;
#X connect 94 0 101 0;
#X connect 95 0 102 0;
#X connect 95 1 94 0;
#X connect 95 2 93 0;
#X connect 96 0 105 0;
#X connect 97 0 79 0;
#X connect 98 0 8 0;
#X connect 99 0 40 0;
#X connect 100 0 64 0;
#X connect 101 0 88 0;
#X connect 102 0 103 0;
#X connect 103 0 88 0;
#X connect 104 0 80 0;
#X connect 105 0 80 0;
#X connect 106 0 14 0;
#X connect 107 0 74 0;
