#N canvas 475 181 1455 787 12;
#X obj 158 501 catch~ \$0-output;
#X obj 158 538 /~ 5;
#X obj 159 578 dac~ 1 2;
#X obj 359 534 tgl 15 0 empty empty empty 17 7 0 10 -262144 -1 -1 1
1;
#X obj 359 554 metro 200;
#X obj 360 592 tabwrite~ \$0-scope;
#N canvas 0 22 450 278 (subpatch) 0;
#X array \$0-scope 8820 float 2;
#X coords 0 1 8820 -1 200 140 1;
#X restore 345 636 graph;
#X obj 178 222 bng 15 250 50 0 empty empty empty 17 7 0 10 -262144
-1 -1;
#X msg 178 242 0 \, 1 200;
#X obj 177 274 line~;
#X obj 176 300 sqrt~;
#X obj 177 383 cos~;
#X obj 172 470 throw~ \$0-output;
#X obj 176 328 *~ 20;
#X obj 174 418 lop~ 700;
#X text 174 193 Drum Kick;
#X obj 423 219 bng 15 250 50 0 empty empty empty 17 7 0 10 -262144
-1 -1;
#X obj 424 245 t b b, f 6;
#X msg 424 275 1 \, 0 100;
#X msg 594 275 1 \, 0 100;
#X obj 424 302 line~;
#X obj 423 329 pow~ 4;
#X obj 424 362 *~;
#X obj 424 386 +~;
#X obj 424 410 lop~ 4000;
#X obj 594 300 line~;
#X obj 595 326 pow~ 4;
#X obj 595 358 *~;
#X obj 691 276 noise~;
#X obj 691 300 hip~ 3000;
#X obj 691 324 bp~ 5000 2;
#X obj 424 458 throw~ \$0-output;
#X obj 498 328 osc~ 150;
#X text 416 191 Drum snare;
#X text 901 201 hi-hat;
#X obj 905 233 bng 15 250 50 0 empty empty empty 17 7 0 10 -262144
-1 -1;
#X msg 905 267 1 \, 0 100;
#X obj 905 298 line~;
#X obj 905 322 pow~ 4;
#X obj 906 446 *~;
#X obj 906 471 *~ 4;
#X obj 1025 267 phasor~ 350;
#X obj 1025 291 *~ 2;
#X obj 1025 315 -~ 1;
#X obj 1025 351 +~;
#X obj 1133 291 *~ 2;
#X obj 1133 315 -~ 1;
#X obj 1133 267 phasor~ 800;
#X obj 1025 381 hip~ 8000;
#X obj 1025 405 hip~ 8000;
#X obj 1024 430 hip~ 8000;
#X obj 907 516 throw~ \$0-output;
#X obj 1196 311 noise~;
#X obj 1196 335 /~ 4;
#X obj 177 359 -~ 0.55;
#X obj 481 5 tgl 15 0 empty empty empty 17 7 0 10 -262144 -1 -1 1 1
;
#X obj 484 69 random 3;
#X obj 484 112 sel 0 1 2;
#X obj 620 29 i;
#X obj 620 53 % 8;
#X obj 620 77 sel 0;
#X obj 693 30 + 1;
#X msg 620 111 seed 1678;
#X obj 484 29 metro 200;
#X floatatom 821 13 5 0 0 0 - - -;
#X obj 28 33 netreceive -u 12347;
#X obj 30 79 route Breaths:;
#X obj 25 127 unpack 0 string 0;
#X floatatom 22 172 5 0 0 0 - - -;
#X floatatom 134 163 5 0 0 0 - - -;
#X text 133 185 RPM;
#X text 23 200 Respiration detection;
#X obj 196 125 unpack 0 string 0;
#X obj 201 77 route BEATS;
#X floatatom 187 162 5 0 0 0 - - -;
#X floatatom 299 153 5 0 0 0 - - -;
#X text 298 175 RPM;
#X connect 0 0 1 0;
#X connect 0 0 5 0;
#X connect 1 0 2 0;
#X connect 1 0 2 1;
#X connect 3 0 4 0;
#X connect 4 0 5 0;
#X connect 7 0 8 0;
#X connect 8 0 9 0;
#X connect 9 0 10 0;
#X connect 10 0 13 0;
#X connect 11 0 14 0;
#X connect 13 0 54 0;
#X connect 14 0 12 0;
#X connect 16 0 17 0;
#X connect 17 0 18 0;
#X connect 17 1 19 0;
#X connect 18 0 20 0;
#X connect 19 0 25 0;
#X connect 20 0 21 0;
#X connect 21 0 22 0;
#X connect 22 0 23 0;
#X connect 23 0 24 0;
#X connect 24 0 31 0;
#X connect 25 0 26 0;
#X connect 26 0 27 0;
#X connect 27 0 23 1;
#X connect 28 0 29 0;
#X connect 29 0 30 0;
#X connect 30 0 27 1;
#X connect 32 0 22 1;
#X connect 35 0 36 0;
#X connect 36 0 37 0;
#X connect 37 0 38 0;
#X connect 38 0 39 0;
#X connect 39 0 40 0;
#X connect 40 0 51 0;
#X connect 41 0 42 0;
#X connect 42 0 43 0;
#X connect 43 0 44 0;
#X connect 44 0 48 0;
#X connect 45 0 46 0;
#X connect 46 0 44 1;
#X connect 47 0 45 0;
#X connect 48 0 49 0;
#X connect 49 0 50 0;
#X connect 50 0 39 1;
#X connect 52 0 53 0;
#X connect 53 0 48 0;
#X connect 54 0 11 0;
#X connect 55 0 63 0;
#X connect 56 0 57 0;
#X connect 57 0 7 0;
#X connect 57 1 16 0;
#X connect 57 2 35 0;
#X connect 58 0 59 0;
#X connect 58 0 61 0;
#X connect 59 0 60 0;
#X connect 60 0 62 0;
#X connect 61 0 58 1;
#X connect 62 0 56 0;
#X connect 63 0 56 0;
#X connect 63 0 58 0;
#X connect 64 0 63 1;
#X connect 65 0 66 0;
#X connect 65 0 73 0;
#X connect 66 0 67 0;
#X connect 67 0 68 0;
#X connect 67 2 69 0;
#X connect 69 0 63 1;
#X connect 72 0 74 0;
#X connect 72 2 75 0;
#X connect 73 0 72 0;
