#N canvas 2426 59 1602 1007 12;
#X floatatom 416 150 5 0 0 0 - - - 0;
#X obj 345 62 loadbang;
#X obj 338 165 bng 19 250 50 0 empty empty empty 0 -10 0 12 #fcfcfc #000000 #000000;
#X obj 338 193 /;
#X floatatom 338 221 5 0 0 0 - - - 0;
#X obj 338 248 send 4th_time;
#X obj 168 454 receive ON;
#X obj 287 454 receive 4th_time;
#X obj 287 486 * 4;
#X floatatom 287 518 5 0 0 0 - - - 0;
#X obj 287 549 send whole_time;
#X obj 225 542 metro;
#X obj 225 574 bng 19 250 50 0 empty empty empty 0 -10 0 12 #fcfcfc #000000 #000000;
#X obj 225 606 send whole_note;
#X obj 766 455 receive ON;
#X obj 921 455 receive 4th_time;
#X floatatom 921 519 5 0 0 0 - - - 0;
#X obj 852 543 metro;
#X obj 852 575 bng 19 250 50 0 empty empty empty 0 -10 0 12 #fcfcfc #000000 #000000;
#X obj 921 487 * 1;
#X obj 852 607 send 4th_note;
#X obj 96 154 tgl 19 0 empty empty empty 0 -10 0 12 #fcfcfc #000000 #000000 0 1;
#X obj 95 211 send ON;
#X msg 276 118 60000;
#X obj 451 454 receive ON;
#X obj 606 454 receive 4th_time;
#X floatatom 606 518 5 0 0 0 - - - 0;
#X obj 537 542 metro;
#X obj 537 574 bng 19 250 50 0 empty empty empty 0 -10 0 12 #fcfcfc #000000 #000000;
#X obj 537 606 send half_note;
#X obj 606 486 * 2;
#X msg 419 118 61;
#X obj 345 91 t b b b;
#X connect 0 0 2 0;
#X connect 0 0 3 1;
#X connect 1 0 32 0;
#X connect 2 0 3 0;
#X connect 3 0 4 0;
#X connect 4 0 5 0;
#X connect 6 0 11 0;
#X connect 7 0 8 0;
#X connect 8 0 9 0;
#X connect 9 0 10 0;
#X connect 9 0 11 1;
#X connect 11 0 12 0;
#X connect 12 0 13 0;
#X connect 14 0 17 0;
#X connect 15 0 19 0;
#X connect 16 0 17 1;
#X connect 17 0 18 0;
#X connect 18 0 20 0;
#X connect 19 0 16 0;
#X connect 21 0 22 0;
#X connect 23 0 3 0;
#X connect 24 0 27 0;
#X connect 25 0 30 0;
#X connect 26 0 27 1;
#X connect 27 0 28 0;
#X connect 28 0 29 0;
#X connect 30 0 26 0;
#X connect 31 0 0 0;
#X connect 32 0 23 0;
#X connect 32 1 0 0;
#X connect 32 2 31 0;
