#N canvas 372 109 1097 549 12;
#X declare -lib Gem;
#X msg 47 56 create \, 1;
#X msg 87 95 0 \, destroy;
#X msg 184 96 dimen 640 480;
#X obj 58 155 gemwin;
#X obj 358 53 gemhead;
#X floatatom 387 96 5 0 0 0 - - - 0;
#X floatatom 450 93 5 0 0 0 - - - 0;
#X floatatom 514 94 5 0 0 0 - - - 0;
#X obj 366 138 colorRGB;
#X obj 359 360 sphere;
#X obj 225 272 loadbang;
#X obj 369 236 scaleXYZ;
#X floatatom 410 182 5 0 0 0 - - - 0;
#X obj 362 289 rotateXYZ;
#X floatatom 473 205 5 0 0 0 - - - 0;
#X msg 225 308 draw line;
#X floatatom 535 205 5 0 0 0 - - - 0;
#X floatatom 595 205 5 0 0 0 - - - 0;
#X obj 674 150 receive animation;
#X obj 715 71 declare -lib Gem;
#X connect 0 0 3 0;
#X connect 1 0 3 0;
#X connect 2 0 3 0;
#X connect 4 0 8 0;
#X connect 5 0 8 1;
#X connect 6 0 8 2;
#X connect 7 0 8 4;
#X connect 8 0 11 0;
#X connect 10 0 15 0;
#X connect 11 0 13 0;
#X connect 12 0 11 1;
#X connect 12 0 11 2;
#X connect 12 0 11 3;
#X connect 13 0 9 0;
#X connect 14 0 13 2;
#X connect 15 0 9 0;
#X connect 16 0 13 1;
#X connect 17 0 13 3;
#X connect 18 0 14 0;
