#N canvas 1511 151 1440 790 12;
#X floatatom 87 119 5 0 0 0 - - - 0;
#X obj 87 275 +~;
#X obj 226 145 noise~;
#X obj 226 169 lop~ 100;
#X obj 87 88 inlet;
#X obj 86 314 osc~;
#X obj 86 431 outlet~;
#X obj 250 217 +~;
#X obj 377 211 *~ -1;
#X obj 548 204 inlet;
#X obj 548 228 * 0.01;
#X floatatom 548 252 5 0 0 0 - - - 0;
#X obj 362 292 *~;
#X obj 362 316 *~;
#X obj 435 297 receive freq;
#X obj 435 321 * 0.5;
#X obj 108 159 send freq;
#X obj 126 364 send~ feedback;
#X obj 377 187 receive~ feedback;
#X connect 0 0 1 0;
#X connect 0 0 16 0;
#X connect 1 0 5 0;
#X connect 2 0 3 0;
#X connect 3 0 7 0;
#X connect 3 0 1 1;
#X connect 4 0 0 0;
#X connect 5 0 6 0;
#X connect 5 0 17 0;
#X connect 7 0 12 0;
#X connect 8 0 7 1;
#X connect 9 0 10 0;
#X connect 10 0 11 0;
#X connect 11 0 12 1;
#X connect 12 0 13 0;
#X connect 14 0 15 0;
#X connect 15 0 13 1;
#X connect 18 0 8 0;
