#N canvas 772 208 1540 825 12;
#X floatatom 87 119 5 0 0 0 - - - 0;
#X obj 87 275 +~;
#X obj 226 145 noise~;
#X obj 87 88 inlet;
#X obj 86 314 osc~;
#X obj 86 431 outlet~;
#X obj 299 296 * 0.5;
#X obj 242 334 *~;
#X obj 302 154 inlet;
#X obj 227 175 lop~ 2;
#X connect 0 0 1 0;
#X connect 0 0 6 0;
#X connect 1 0 4 0;
#X connect 2 0 9 0;
#X connect 3 0 0 0;
#X connect 4 0 5 0;
#X connect 6 0 7 1;
#X connect 7 0 1 1;
#X connect 8 0 9 1;
#X connect 9 0 7 0;
