#N canvas 719 89 1241 1037 10;
#X obj 54 186 markov_matrix;
#X obj 54 136 bng 15 250 50 0 empty empty play 17 7 0 10 #fcfcfc #000000 #000000;
#X obj 129 151 bng 15 250 50 0 empty empty reset 17 7 0 10 #fcfcfc #000000 #000000;
#X obj 76 211 print out;
#X floatatom 1008 137 5 0 0 0 - - - 0;
#X floatatom 1065 137 5 0 0 0 - - - 0;
#X floatatom 1123 137 5 0 0 0 - - - 0;
#X floatatom 1170 137 5 0 0 0 - - - 0;
#X floatatom 1220 137 5 0 0 0 - - - 0;
#X floatatom 1273 137 5 0 0 0 - - - 0;
#X floatatom 1319 137 5 0 0 0 - - - 0;
#X floatatom 1372 137 5 0 0 0 - - - 0;
#X floatatom 1220 177 5 0 0 0 - - - 0;
#X floatatom 1273 177 5 0 0 0 - - - 0;
#X floatatom 1319 177 5 0 0 0 - - - 0;
#X floatatom 1372 177 5 0 0 0 - - - 0;
#X floatatom 1424 177 5 0 0 0 - - - 0;
#X floatatom 1481 177 5 0 0 0 - - - 0;
#X floatatom 1008 217 5 0 0 0 - - - 0;
#X floatatom 1065 217 5 0 0 0 - - - 0;
#X floatatom 1424 217 5 0 0 0 - - - 0;
#X floatatom 1481 217 5 0 0 0 - - - 0;
#X floatatom 1008 257 5 0 0 0 - - - 0;
#X floatatom 1065 257 5 0 0 0 - - - 0;
#X floatatom 1123 257 5 0 0 0 - - - 0;
#X floatatom 1170 257 5 0 0 0 - - - 0;
#X floatatom 1220 257 5 0 0 0 - - - 0;
#X floatatom 1273 257 5 0 0 0 - - - 0;
#X floatatom 1123 297 5 0 0 0 - - - 0;
#X floatatom 1170 297 5 0 0 0 - - - 0;
#X floatatom 1220 297 5 0 0 0 - - - 0;
#X floatatom 1273 297 5 0 0 0 - - - 0;
#X floatatom 1319 297 5 0 0 0 - - - 0;
#X floatatom 1372 297 5 0 0 0 - - - 0;
#X floatatom 1424 297 5 0 0 0 - - - 0;
#X floatatom 1481 297 5 0 0 0 - - - 0;
#X floatatom 1319 337 5 0 0 0 - - - 0;
#X floatatom 1372 337 5 0 0 0 - - - 0;
#X floatatom 1424 337 5 0 0 0 - - - 0;
#X floatatom 1481 337 5 0 0 0 - - - 0;
#X floatatom 1008 377 5 0 0 0 - - - 0;
#X floatatom 1065 377 5 0 0 0 - - - 0;
#X floatatom 1123 377 5 0 0 0 - - - 0;
#X floatatom 1170 377 5 0 0 0 - - - 0;
#X obj 114 874 print;
#X floatatom 1424 137 5 0 0 0 - - - 0;
#X floatatom 1481 137 5 0 0 0 - - - 0;
#X floatatom 1008 177 5 0 0 0 - - - 0;
#X floatatom 1065 177 5 0 0 0 - - - 0;
#X floatatom 1123 177 5 0 0 0 - - - 0;
#X floatatom 1170 177 5 0 0 0 - - - 0;
#X floatatom 1123 217 5 0 0 0 - - - 0;
#X floatatom 1170 217 5 0 0 0 - - - 0;
#X floatatom 1220 217 5 0 0 0 - - - 0;
#X floatatom 1273 217 5 0 0 0 - - - 0;
#X floatatom 1319 217 5 0 0 0 - - - 0;
#X floatatom 1372 217 5 0 0 0 - - - 0;
#X floatatom 1319 257 5 0 0 0 - - - 0;
#X floatatom 1372 257 5 0 0 0 - - - 0;
#X floatatom 1424 257 5 0 0 0 - - - 0;
#X floatatom 1481 257 5 0 0 0 - - - 0;
#X floatatom 1008 297 5 0 0 0 - - - 0;
#X floatatom 1065 297 5 0 0 0 - - - 0;
#X floatatom 1008 337 5 0 0 0 - - - 0;
#X floatatom 1065 337 5 0 0 0 - - - 0;
#X floatatom 1123 337 5 0 0 0 - - - 0;
#X floatatom 1170 337 5 0 0 0 - - - 0;
#X floatatom 1220 337 5 0 0 0 - - - 0;
#X floatatom 1273 337 5 0 0 0 - - - 0;
#X obj 47 499 bng 16 250 50 0 empty empty empty 0 -8 0 10 #fcfcfc #000000 #000000;
#X floatatom 41 279 5 0 0 0 - - - 0;
#X obj 66 245 CREE_Notes;
#X msg 109 757 list 0 0 \$1 \, 0 1 \$2 \, 0 2 \$3 \, 0 3 \$4 \, 0 4 \$5 \, 0 5 \$6 \, 0 6 \$7 \, 0 7 \$8 \, 0 8 \$9 \, 0 9 \$10 \, 1 0 \$11 \, 1 1 \$12 \, 1 2 \$13 \, 1 3 \$14 \, 1 4 \$15 \, 1 5 \$16 \, 1 6 \$17 \, 1 7 \$18 \, 1 8 \$19 \, 1 9 \$20 \, 2 0 \$21 \, 2 1 \$22 \, 2 2 \$23 \, 2 3 \$24 \, 2 4 \$25 \, 2 5 \$26 \, 2 6 \$27 \, 2 7 \$28 \, 2 8 \$29 \, 2 9 \$30 \, 3 0 \$31 \, 3 1 \$32 \, 3 2 \$33 \, 3 3 \$34 \, 3 4 \$35 \, 3 5 \$36 \, 3 6 \$37 \, 3 7 \$38 \, 3 8 \$39 \, 3 9 \$40 \, 4 0 \$41 \, 4 1 \$42 \, 4 2 \$43 \, 4 3 \$44 \, 4 4 \$45 \, 4 5 \$46 \, 4 6 \$47 \, 4 7 \$48 \, 4 8 \$49 \, 4 9 \$50 \, 5 0 \$51 \, 5 1 \$52 \, 5 2 \$53 \, 5 3 \$54 \, 5 4 \$55 \, 5 5 \$56 \, 5 6 \$57 \, 5 7 \$58 \, 5 8 \$59 \, 5 9 \$60 \, 6 0 \$61 \, 6 1 \$62 \, 6 2 \$63 \, 6 3 \$64 \, 6 4 \$65 \, 6 5 \$66 \, 6 6 \$67 \, 6 7 \$68 \, 6 8 \$69 \, 6 9 \$70 \, 7 0 \$71 \, 7 1 \$72 \, 7 2 \$73 \, 7 3 \$74 \, 7 4 \$75 \, 7 5 \$76 \, 7 6 \$77 \, 7 7 \$78 \, 7 8 \$79 \, 7 9 \$80 \, 8 0 \$81 \, 8 1 \$82 \, 8 2 \$83 \, 8 3 \$84 \, 8 4 \$85 \, 8 5 \$86 \, 8 6 \$87 \, 8 7 \$88 \, 8 8 \$89 \, 8 9 \$90 \, 9 0 \$91 \, 9 1 \$92 \, 9 2 \$93 \, 9 3 \$94 \, 9 4 \$95 \, 9 5 \$96 \, 9 6 \$97 \, 9 7 \$98 \, 9 8 \$99 \, 9 9 \$100, f 114;
#X obj 109 725 pack f f f f f f f f f f f f f f f f f f f f f f f f f f f f f f f f f f f f f f f f f f f f f f f f f f f f f f f f f f f f f f f f f f f f f f f f f f f f f f f f f f f f f f f f f f f f f f f f f f f f, f 314;
#X floatatom 1220 377 5 0 0 0 - - - 0;
#X floatatom 1273 377 5 0 0 0 - - - 0;
#X floatatom 1008 417 5 0 0 0 - - - 0;
#X floatatom 1065 417 5 0 0 0 - - - 0;
#X floatatom 1123 417 5 0 0 0 - - - 0;
#X floatatom 1170 417 5 0 0 0 - - - 0;
#X floatatom 1220 417 5 0 0 0 - - - 0;
#X floatatom 1273 417 5 0 0 0 - - - 0;
#X floatatom 1319 417 5 0 0 0 - - - 0;
#X floatatom 1372 417 5 0 0 0 - - - 0;
#X floatatom 1319 377 5 0 0 0 - - - 0;
#X floatatom 1372 377 5 0 0 0 - - - 0;
#X floatatom 1424 377 5 0 0 0 - - - 0;
#X floatatom 1481 377 5 0 0 0 - - - 0;
#X floatatom 1424 417 5 0 0 0 - - - 0;
#X floatatom 1481 417 5 0 0 0 - - - 0;
#X floatatom 1008 457 5 0 0 0 - - - 0;
#X floatatom 1065 457 5 0 0 0 - - - 0;
#X floatatom 1123 457 5 0 0 0 - - - 0;
#X floatatom 1170 457 5 0 0 0 - - - 0;
#X floatatom 1220 457 5 0 0 0 - - - 0;
#X floatatom 1273 457 5 0 0 0 - - - 0;
#X floatatom 1008 497 5 0 0 0 - - - 0;
#X floatatom 1065 497 5 0 0 0 - - - 0;
#X floatatom 1123 497 5 0 0 0 - - - 0;
#X floatatom 1170 497 5 0 0 0 - - - 0;
#X floatatom 1220 497 5 0 0 0 - - - 0;
#X floatatom 1273 497 5 0 0 0 - - - 0;
#X floatatom 1319 497 5 0 0 0 - - - 0;
#X floatatom 1372 497 5 0 0 0 - - - 0;
#X floatatom 1319 457 5 0 0 0 - - - 0;
#X floatatom 1372 457 5 0 0 0 - - - 0;
#X floatatom 1424 457 5 0 0 0 - - - 0;
#X floatatom 1481 457 5 0 0 0 - - - 0;
#X floatatom 1424 497 5 0 0 0 - - - 0;
#X floatatom 1481 497 5 0 0 0 - - - 0;
#X obj 1558 121 unpack f f f f f f f f f f;
#X obj 1559 161 unpack f f f f f f f f f f;
#X obj 1559 201 unpack f f f f f f f f f f;
#X obj 1559 241 unpack f f f f f f f f f f;
#X obj 1558 281 unpack f f f f f f f f f f;
#X obj 1557 321 unpack f f f f f f f f f f;
#X obj 1557 361 unpack f f f f f f f f f f;
#X obj 1559 401 unpack f f f f f f f f f f;
#X obj 1560 441 unpack f f f f f f f f f f;
#X obj 1560 481 unpack f f f f f f f f f f;
#X msg 1749 105 4 1 5 3 4 2 0 0 0 0;
#X msg 1753 145 0 0 5 0 0 0 0 0 0 0;
#X text 1727 48 E F# G A B C C# D E G;
#X text 1928 106 E;
#X text 1923 146 F#;
#X text 1927 188 G;
#X text 1927 228 A;
#X text 1932 266 B;
#X text 1932 313 C;
#X text 1927 353 C#;
#X text 1931 395 D;
#X text 1931 435 E;
#X text 1931 472 G;
#X msg 1744 465 0 0 2 0 0 1 2 3 4 2;
#X msg 1747 425 3 1 0 2 2 1 1 4 1 3;
#X msg 1756 305 2 0 2 4 0 0 1 4 2 1;
#X msg 1753 345 0 0 2 5 1 0 0 5 5 0;
#X msg 1761 225 3 3 3 2 4 1 2 2 0 0;
#X msg 1757 185 3 1 4 5 4 1 1 4 1 1;
#X msg 1758 265 1 1 4 3 2 1 5 4 1 0;
#X msg 1750 385 0 0 3 4 5 0 2 0 2 5;
#X obj 1693 62 bang;
#X obj 1703 14 loadbang;
#X obj 1656 52 bng 16 250 50 0 empty empty empty 0 -8 0 10 #fcfcfc #000000 #000000;
#X obj 57 102 inlet;
#X obj 49 465 loadbang;
#X connect 0 0 3 0;
#X connect 0 0 70 0;
#X connect 0 0 71 0;
#X connect 1 0 0 0;
#X connect 2 0 0 1;
#X connect 4 0 73 0;
#X connect 5 0 73 1;
#X connect 6 0 73 2;
#X connect 7 0 73 3;
#X connect 8 0 73 4;
#X connect 9 0 73 5;
#X connect 10 0 73 6;
#X connect 11 0 73 7;
#X connect 12 0 73 14;
#X connect 13 0 73 15;
#X connect 14 0 73 16;
#X connect 15 0 73 17;
#X connect 16 0 73 18;
#X connect 17 0 73 19;
#X connect 18 0 73 20;
#X connect 19 0 73 21;
#X connect 20 0 73 28;
#X connect 21 0 73 29;
#X connect 22 0 73 30;
#X connect 23 0 73 31;
#X connect 24 0 73 32;
#X connect 25 0 73 33;
#X connect 26 0 73 34;
#X connect 27 0 73 35;
#X connect 28 0 73 42;
#X connect 29 0 73 43;
#X connect 30 0 73 44;
#X connect 31 0 73 45;
#X connect 32 0 73 46;
#X connect 33 0 73 47;
#X connect 34 0 73 48;
#X connect 35 0 73 49;
#X connect 36 0 73 56;
#X connect 37 0 73 57;
#X connect 38 0 73 58;
#X connect 39 0 73 59;
#X connect 40 0 73 60;
#X connect 41 0 73 61;
#X connect 42 0 73 62;
#X connect 43 0 73 63;
#X connect 45 0 73 8;
#X connect 46 0 73 9;
#X connect 47 0 73 10;
#X connect 48 0 73 11;
#X connect 49 0 73 12;
#X connect 50 0 73 13;
#X connect 51 0 73 22;
#X connect 52 0 73 23;
#X connect 53 0 73 24;
#X connect 54 0 73 25;
#X connect 55 0 73 26;
#X connect 56 0 73 27;
#X connect 57 0 73 36;
#X connect 58 0 73 37;
#X connect 59 0 73 38;
#X connect 60 0 73 39;
#X connect 61 0 73 40;
#X connect 62 0 73 41;
#X connect 63 0 73 50;
#X connect 64 0 73 51;
#X connect 65 0 73 52;
#X connect 66 0 73 53;
#X connect 67 0 73 54;
#X connect 68 0 73 55;
#X connect 69 0 73 0;
#X connect 72 0 44 0;
#X connect 72 0 0 1;
#X connect 73 0 72 0;
#X connect 74 0 73 64;
#X connect 75 0 73 65;
#X connect 76 0 73 70;
#X connect 77 0 73 71;
#X connect 78 0 73 72;
#X connect 79 0 73 73;
#X connect 80 0 73 74;
#X connect 81 0 73 75;
#X connect 82 0 73 76;
#X connect 83 0 73 77;
#X connect 84 0 73 66;
#X connect 85 0 73 67;
#X connect 86 0 73 68;
#X connect 87 0 73 69;
#X connect 88 0 73 78;
#X connect 89 0 73 79;
#X connect 90 0 73 80;
#X connect 91 0 73 81;
#X connect 92 0 73 82;
#X connect 93 0 73 83;
#X connect 94 0 73 84;
#X connect 95 0 73 85;
#X connect 96 0 73 90;
#X connect 97 0 73 91;
#X connect 98 0 73 92;
#X connect 99 0 73 93;
#X connect 100 0 73 94;
#X connect 101 0 73 95;
#X connect 102 0 73 96;
#X connect 103 0 73 97;
#X connect 104 0 73 86;
#X connect 105 0 73 87;
#X connect 106 0 73 88;
#X connect 107 0 73 89;
#X connect 108 0 73 98;
#X connect 109 0 73 99;
#X connect 110 0 4 0;
#X connect 110 1 5 0;
#X connect 110 2 6 0;
#X connect 110 3 7 0;
#X connect 110 4 8 0;
#X connect 110 5 9 0;
#X connect 110 6 10 0;
#X connect 110 7 11 0;
#X connect 110 8 45 0;
#X connect 110 9 46 0;
#X connect 111 0 47 0;
#X connect 111 1 48 0;
#X connect 111 2 49 0;
#X connect 111 3 50 0;
#X connect 111 4 12 0;
#X connect 111 5 13 0;
#X connect 111 6 14 0;
#X connect 111 7 15 0;
#X connect 111 8 16 0;
#X connect 111 9 17 0;
#X connect 112 0 18 0;
#X connect 112 1 19 0;
#X connect 112 2 51 0;
#X connect 112 3 52 0;
#X connect 112 4 53 0;
#X connect 112 5 54 0;
#X connect 112 6 55 0;
#X connect 112 7 56 0;
#X connect 112 8 20 0;
#X connect 112 9 21 0;
#X connect 113 0 22 0;
#X connect 113 1 23 0;
#X connect 113 2 24 0;
#X connect 113 3 25 0;
#X connect 113 4 26 0;
#X connect 113 5 27 0;
#X connect 113 6 57 0;
#X connect 113 7 58 0;
#X connect 113 8 59 0;
#X connect 113 9 60 0;
#X connect 114 0 61 0;
#X connect 114 1 62 0;
#X connect 114 2 28 0;
#X connect 114 3 29 0;
#X connect 114 4 30 0;
#X connect 114 5 31 0;
#X connect 114 6 32 0;
#X connect 114 7 33 0;
#X connect 114 8 34 0;
#X connect 114 9 35 0;
#X connect 115 0 63 0;
#X connect 115 1 64 0;
#X connect 115 2 65 0;
#X connect 115 3 66 0;
#X connect 115 4 67 0;
#X connect 115 5 68 0;
#X connect 115 6 36 0;
#X connect 115 7 37 0;
#X connect 115 8 38 0;
#X connect 115 9 39 0;
#X connect 116 0 40 0;
#X connect 116 1 41 0;
#X connect 116 2 42 0;
#X connect 116 3 43 0;
#X connect 116 4 74 0;
#X connect 116 5 75 0;
#X connect 116 6 84 0;
#X connect 116 7 85 0;
#X connect 116 8 86 0;
#X connect 116 9 87 0;
#X connect 117 0 76 0;
#X connect 117 1 77 0;
#X connect 117 2 78 0;
#X connect 117 3 79 0;
#X connect 117 4 80 0;
#X connect 117 5 81 0;
#X connect 117 6 82 0;
#X connect 117 7 83 0;
#X connect 117 8 88 0;
#X connect 117 9 89 0;
#X connect 118 0 90 0;
#X connect 118 1 91 0;
#X connect 118 2 92 0;
#X connect 118 3 93 0;
#X connect 118 4 94 0;
#X connect 118 5 95 0;
#X connect 118 6 104 0;
#X connect 118 7 105 0;
#X connect 118 8 106 0;
#X connect 118 9 107 0;
#X connect 119 0 96 0;
#X connect 119 1 97 0;
#X connect 119 2 98 0;
#X connect 119 3 99 0;
#X connect 119 4 100 0;
#X connect 119 5 101 0;
#X connect 119 6 102 0;
#X connect 119 7 103 0;
#X connect 119 8 108 0;
#X connect 119 9 109 0;
#X connect 120 0 110 0;
#X connect 121 0 111 0;
#X connect 133 0 119 0;
#X connect 134 0 118 0;
#X connect 135 0 115 0;
#X connect 136 0 116 0;
#X connect 137 0 113 0;
#X connect 138 0 112 0;
#X connect 139 0 114 0;
#X connect 140 0 117 0;
#X connect 141 0 120 0;
#X connect 141 0 121 0;
#X connect 141 0 139 0;
#X connect 141 0 135 0;
#X connect 141 0 136 0;
#X connect 141 0 140 0;
#X connect 141 0 133 0;
#X connect 141 0 137 0;
#X connect 141 0 134 0;
#X connect 141 0 138 0;
#X connect 142 0 141 0;
#X connect 143 0 141 0;
#X connect 144 0 1 0;
#X connect 145 0 69 0;
