#N canvas 1312 0 1239 1028 10;
#X obj 54 186 markov_matrix;
#X obj 54 136 bng 15 250 50 0 empty empty play 17 7 0 10 #fcfcfc #000000 #000000;
#X obj 129 151 bng 15 250 50 0 empty empty reset 17 7 0 10 #fcfcfc #000000 #000000;
#X obj 76 211 print out;
#X floatatom 905 44 5 0 0 0 - - - 0;
#X floatatom 962 44 5 0 0 0 - - - 0;
#X floatatom 1020 44 5 0 0 0 - - - 0;
#X floatatom 1067 44 5 0 0 0 - - - 0;
#X floatatom 1117 44 5 0 0 0 - - - 0;
#X floatatom 1170 44 5 0 0 0 - - - 0;
#X floatatom 1216 44 5 0 0 0 - - - 0;
#X floatatom 1269 44 5 0 0 0 - - - 0;
#X floatatom 1216 83 5 0 0 0 - - - 0;
#X floatatom 1269 83 5 0 0 0 - - - 0;
#X floatatom 905 122 5 0 0 0 - - - 0;
#X floatatom 962 122 5 0 0 0 - - - 0;
#X floatatom 1020 122 5 0 0 0 - - - 0;
#X floatatom 1067 122 5 0 0 0 - - - 0;
#X floatatom 1117 122 5 0 0 0 - - - 0;
#X floatatom 1170 122 5 0 0 0 - - - 0;
#X floatatom 1117 161 5 0 0 0 - - - 0;
#X floatatom 1170 161 5 0 0 0 - - - 0;
#X floatatom 1216 161 5 0 0 0 - - - 0;
#X floatatom 1269 161 5 0 0 0 - - - 0;
#X floatatom 905 200 5 0 0 0 - - - 0;
#X floatatom 962 200 5 0 0 0 - - - 0;
#X floatatom 1020 200 5 0 0 0 - - - 0;
#X floatatom 1067 200 5 0 0 0 - - - 0;
#X floatatom 1020 239 5 0 0 0 - - - 0;
#X floatatom 1067 239 5 0 0 0 - - - 0;
#X floatatom 1117 239 5 0 0 0 - - - 0;
#X floatatom 1170 239 5 0 0 0 - - - 0;
#X floatatom 1216 239 5 0 0 0 - - - 0;
#X floatatom 1269 239 5 0 0 0 - - - 0;
#X floatatom 905 278 5 0 0 0 - - - 0;
#X floatatom 962 278 5 0 0 0 - - - 0;
#X floatatom 905 317 5 0 0 0 - - - 0;
#X floatatom 962 317 5 0 0 0 - - - 0;
#X floatatom 1020 317 5 0 0 0 - - - 0;
#X floatatom 1067 317 5 0 0 0 - - - 0;
#X floatatom 1117 317 5 0 0 0 - - - 0;
#X floatatom 1170 317 5 0 0 0 - - - 0;
#X floatatom 1216 317 5 0 0 0 - - - 0;
#X floatatom 1269 317 5 0 0 0 - - - 0;
#X obj 458 603 print;
#X floatatom 905 83 5 0 0 0 - - - 0;
#X floatatom 962 83 5 0 0 0 - - - 0;
#X floatatom 1020 83 5 0 0 0 - - - 0;
#X floatatom 1067 83 5 0 0 0 - - - 0;
#X floatatom 1117 83 5 0 0 0 - - - 0;
#X floatatom 1170 83 5 0 0 0 - - - 0;
#X floatatom 1216 122 5 0 0 0 - - - 0;
#X floatatom 1269 122 5 0 0 0 - - - 0;
#X floatatom 905 161 5 0 0 0 - - - 0;
#X floatatom 962 161 5 0 0 0 - - - 0;
#X floatatom 1020 161 5 0 0 0 - - - 0;
#X floatatom 1067 161 5 0 0 0 - - - 0;
#X floatatom 1117 200 5 0 0 0 - - - 0;
#X floatatom 1170 200 5 0 0 0 - - - 0;
#X floatatom 1216 200 5 0 0 0 - - - 0;
#X floatatom 1269 200 5 0 0 0 - - - 0;
#X floatatom 905 239 5 0 0 0 - - - 0;
#X floatatom 962 239 5 0 0 0 - - - 0;
#X floatatom 1020 278 5 0 0 0 - - - 0;
#X floatatom 1067 278 5 0 0 0 - - - 0;
#X floatatom 1117 278 5 0 0 0 - - - 0;
#X floatatom 1170 278 5 0 0 0 - - - 0;
#X floatatom 1216 278 5 0 0 0 - - - 0;
#X floatatom 1269 278 5 0 0 0 - - - 0;
#X obj 458 455 bng 16 250 50 0 empty empty empty 0 -8 0 10 #fcfcfc #000000 #000000;
#X obj 66 245 CREE_Chords;
#X floatatom 41 279 5 0 0 0 - - - 0;
#X obj 458 498 pack f f f f f f f f f f f f f f f f f f f f f f f f f f f f f f f f f f f f f f f f f f f f f f f f f f f f f f f f f f f f f f f f, f 314;
#X msg 458 530 list 0 0 \$1 \, 0 1 \$2 \, 0 2 \$3 \, 0 3 \$4 \, 0 4 \$5 \, 0 5 \$6 \, 0 6 \$7 \, 0 7 \$8 \, 1 0 \$9 \, 1 1 \$10 \, 1 2 \$11 \, 1 3 \$12 \, 1 4 \$13 \, 1 5 \$14 \, 1 6 \$15 \, 1 7 \$16 \, 2 0 \$17 \, 2 1 \$18 \, 2 2 \$19 \, 2 3 \$20 \, 2 4 \$21 \, 2 5 \$22 \, 2 6 \$23 \, 2 7 \$24 \, 3 0 \$25 \, 3 1 \$26 \, 3 2 \$27 \, 3 3 \$28 \, 3 4 \$29 \, 3 5 \$30 \, 3 6 \$31 \, 3 7 \$32 \, 4 0 \$33 \, 4 1 \$34 \, 4 2 \$35 \, 4 3 \$36 \, 4 4 \$37 \, 4 5 \$38 \, 4 6 \$39 \, 4 7 \$40 \, 5 0 \$41 \, 5 1 \$42 \, 5 2 \$43 \, 5 3 \$44 \, 5 4 \$45 \, 5 5 \$46 \, 5 6 \$47 \, 5 7 \$48 \, 6 0 \$49 \, 6 1 \$50 \, 6 2 \$51 \, 6 3 \$52 \, 6 4 \$53 \, 6 5 \$54 \, 6 6 \$55 \, 6 7 \$56 \, 7 0 \$57 \, 7 1 \$58 \, 7 2 \$59 \, 7 3 \$60 \, 7 4 \$61 \, 7 5 \$62 \, 7 6 \$63 \, 7 7 \$64, f 114;
#X obj 1603 -30 bang;
#X obj 1613 -78 loadbang;
#X obj 1566 -40 bng 16 250 50 0 empty empty empty 0 -8 0 10 #fcfcfc #000000 #000000;
#X obj 1445 28 unpack f f f f f f f f;
#X obj 1443 67 unpack f f f f f f f f;
#X obj 1441 106 unpack f f f f f f f f;
#X obj 1442 145 unpack f f f f f f f f;
#X obj 1444 184 unpack f f f f f f f f;
#X obj 1444 223 unpack f f f f f f f f;
#X obj 1445 262 unpack f f f f f f f f;
#X obj 1448 301 unpack f f f f f f f f;
#X text 1637 -44 Em C#m7 Bm Am Dmajor Gmajor Dmajor Cmajor;
#X text 1838 14 Em;
#X text 1833 54 C#m7;
#X text 1837 96 Bm;
#X text 1837 136 Am;
#X text 1842 174 Dmajor;
#X text 1842 221 Gmajor;
#X text 1837 261 Dmajor;
#X text 1841 303 Cmajor;
#X msg 1659 12 1 4 3 2 0 1 0 0;
#X msg 1667 90 1 0 0 4 2 1 2 0;
#X msg 1671 129 2 1 0 1 4 0 4 3;
#X msg 1668 168 0 3 3 0 0 5 2 0;
#X msg 1663 51 1 2 4 1 2 2 2 0;
#X msg 1667 207 4 1 2 0 2 2 2 2;
#X msg 1664 246 0 3 3 0 2 5 0 0;
#X msg 1661 285 4 0 0 4 5 2 5 0;
#X obj 111 86 inlet;
#X obj 400 390 loadbang;
#X connect 0 0 3 0;
#X connect 0 0 70 0;
#X connect 0 0 71 0;
#X connect 1 0 0 0;
#X connect 2 0 0 1;
#X connect 4 0 72 0;
#X connect 5 0 72 1;
#X connect 6 0 72 2;
#X connect 7 0 72 3;
#X connect 8 0 72 4;
#X connect 9 0 72 5;
#X connect 10 0 72 6;
#X connect 11 0 72 7;
#X connect 12 0 72 14;
#X connect 13 0 72 15;
#X connect 14 0 72 16;
#X connect 15 0 72 17;
#X connect 16 0 72 18;
#X connect 17 0 72 19;
#X connect 18 0 72 20;
#X connect 19 0 72 21;
#X connect 20 0 72 28;
#X connect 21 0 72 29;
#X connect 22 0 72 30;
#X connect 23 0 72 31;
#X connect 24 0 72 32;
#X connect 25 0 72 33;
#X connect 26 0 72 34;
#X connect 27 0 72 35;
#X connect 28 0 72 42;
#X connect 29 0 72 43;
#X connect 30 0 72 44;
#X connect 31 0 72 45;
#X connect 32 0 72 46;
#X connect 33 0 72 47;
#X connect 34 0 72 48;
#X connect 35 0 72 49;
#X connect 36 0 72 56;
#X connect 37 0 72 57;
#X connect 38 0 72 58;
#X connect 39 0 72 59;
#X connect 40 0 72 60;
#X connect 41 0 72 61;
#X connect 42 0 72 62;
#X connect 43 0 72 63;
#X connect 45 0 72 8;
#X connect 46 0 72 9;
#X connect 47 0 72 10;
#X connect 48 0 72 11;
#X connect 49 0 72 12;
#X connect 50 0 72 13;
#X connect 51 0 72 22;
#X connect 52 0 72 23;
#X connect 53 0 72 24;
#X connect 54 0 72 25;
#X connect 55 0 72 26;
#X connect 56 0 72 27;
#X connect 57 0 72 36;
#X connect 58 0 72 37;
#X connect 59 0 72 38;
#X connect 60 0 72 39;
#X connect 61 0 72 40;
#X connect 62 0 72 41;
#X connect 63 0 72 50;
#X connect 64 0 72 51;
#X connect 65 0 72 52;
#X connect 66 0 72 53;
#X connect 67 0 72 54;
#X connect 68 0 72 55;
#X connect 69 0 72 0;
#X connect 72 0 73 0;
#X connect 73 0 44 0;
#X connect 73 0 0 1;
#X connect 74 0 94 0;
#X connect 74 0 98 0;
#X connect 74 0 97 0;
#X connect 74 0 99 0;
#X connect 74 0 100 0;
#X connect 74 0 101 0;
#X connect 74 0 96 0;
#X connect 74 0 95 0;
#X connect 75 0 74 0;
#X connect 76 0 74 0;
#X connect 77 0 4 0;
#X connect 77 1 5 0;
#X connect 77 2 6 0;
#X connect 77 3 7 0;
#X connect 77 4 8 0;
#X connect 77 5 9 0;
#X connect 77 6 10 0;
#X connect 77 7 11 0;
#X connect 78 0 45 0;
#X connect 78 1 46 0;
#X connect 78 2 47 0;
#X connect 78 3 48 0;
#X connect 78 4 49 0;
#X connect 78 5 50 0;
#X connect 78 6 12 0;
#X connect 78 7 13 0;
#X connect 79 0 14 0;
#X connect 79 1 15 0;
#X connect 79 2 16 0;
#X connect 79 3 17 0;
#X connect 79 4 18 0;
#X connect 79 5 19 0;
#X connect 79 6 51 0;
#X connect 79 7 52 0;
#X connect 80 0 53 0;
#X connect 80 1 54 0;
#X connect 80 2 55 0;
#X connect 80 3 56 0;
#X connect 80 4 20 0;
#X connect 80 5 21 0;
#X connect 80 6 22 0;
#X connect 80 7 23 0;
#X connect 81 0 24 0;
#X connect 81 1 25 0;
#X connect 81 2 26 0;
#X connect 81 3 27 0;
#X connect 81 4 57 0;
#X connect 81 5 58 0;
#X connect 81 6 59 0;
#X connect 81 7 60 0;
#X connect 82 0 61 0;
#X connect 82 1 62 0;
#X connect 82 2 28 0;
#X connect 82 3 29 0;
#X connect 82 4 30 0;
#X connect 82 5 31 0;
#X connect 82 6 32 0;
#X connect 82 7 33 0;
#X connect 83 0 34 0;
#X connect 83 1 35 0;
#X connect 83 2 63 0;
#X connect 83 3 64 0;
#X connect 83 4 65 0;
#X connect 83 5 66 0;
#X connect 83 6 67 0;
#X connect 83 7 68 0;
#X connect 84 0 36 0;
#X connect 84 1 37 0;
#X connect 84 2 38 0;
#X connect 84 3 39 0;
#X connect 84 4 40 0;
#X connect 84 5 41 0;
#X connect 84 6 42 0;
#X connect 84 7 43 0;
#X connect 94 0 77 0;
#X connect 95 0 79 0;
#X connect 96 0 80 0;
#X connect 97 0 81 0;
#X connect 98 0 78 0;
#X connect 99 0 82 0;
#X connect 100 0 83 0;
#X connect 101 0 84 0;
#X connect 102 0 1 0;
#X connect 103 0 69 0;
