#N canvas 4351 265 2482 1033 10;
#X obj 47 40 inlet;
#X obj 277 40 inlet;
#X obj 277 63 route list bang;
#X msg 320 155 clear;
#X obj 320 178 text define \$0-data;
#X obj 47 63 b;
#X obj 397 40 loadbang;
#X msg 347 109 -1;
#X obj 47 109 sel -1;
#X obj 47 155 t b f;
#X obj 47 178 random;
#X obj 47 86 v current-\$0;
#X obj 347 132 v current-\$0;
#X obj 277 201 t l b;
#X obj 346 224 text size \$0-data;
#X obj 277 247 list prepend;
#X obj 277 270 text set \$0-data 1e+06;
#X obj 47 132 text size \$0-data;
#X obj 64 247 until;
#X obj 64 270 f;
#X obj 64 316 text search \$0-data 1 > 0;
#X obj 64 339 sel -1;
#X msg 103 247 -1;
#X obj 64 362 text get \$0-data 2 2;
#X obj 64 385 unpack;
#X obj 64 293 pack;
#X msg 64 500 append \$1;
#X obj 47 592 list store;
#X obj 47 224 t b b f b;
#X obj 97 408 t f b;
#X obj 146 454 t f f;
#X obj 173 500 array size \$0-calc;
#X obj 173 477 + 1;
#X obj 97 523 array set \$0-calc;
#X obj 320 86 t b b;
#X obj 146 431 f;
#X obj 176 431 + 1;
#X msg 161 408 0;
#X obj 47 546 array random \$0-calc;
#X msg 47 569 get \$1 1;
#X obj 97 638 list prepend;
#X obj 47 615 t f f;
#X obj 47 638 outlet;
#X obj 97 661 text search \$0-data 1 2;
#X obj 97 684 v current-\$0;
#X obj 277 316 array define \$0-calc;
#X obj 47 201 text get \$0-data 2;
#X connect 0 0 5 0;
#X connect 1 0 2 0;
#X connect 2 0 13 0;
#X connect 2 1 34 0;
#X connect 3 0 4 0;
#X connect 5 0 11 0;
#X connect 6 0 7 0;
#X connect 7 0 12 0;
#X connect 8 0 17 0;
#X connect 8 1 46 0;
#X connect 9 0 10 0;
#X connect 9 1 10 1;
#X connect 10 0 46 0;
#X connect 11 0 8 0;
#X connect 13 0 15 0;
#X connect 13 1 14 0;
#X connect 14 0 15 1;
#X connect 15 0 16 0;
#X connect 17 0 9 0;
#X connect 18 0 19 0;
#X connect 19 0 25 0;
#X connect 20 0 21 0;
#X connect 21 0 18 1;
#X connect 21 1 23 0;
#X connect 21 1 25 1;
#X connect 22 0 25 1;
#X connect 23 0 24 0;
#X connect 24 0 26 0;
#X connect 24 1 29 0;
#X connect 25 0 20 0;
#X connect 26 0 27 0;
#X connect 27 0 41 0;
#X connect 28 0 38 0;
#X connect 28 1 18 0;
#X connect 28 2 19 1;
#X connect 28 2 40 1;
#X connect 28 3 22 0;
#X connect 28 3 27 1;
#X connect 28 3 37 0;
#X connect 29 0 33 0;
#X connect 29 1 35 0;
#X connect 30 0 33 1;
#X connect 30 1 32 0;
#X connect 32 0 31 0;
#X connect 34 0 3 0;
#X connect 34 1 7 0;
#X connect 35 0 36 0;
#X connect 35 0 30 0;
#X connect 36 0 35 1;
#X connect 37 0 35 1;
#X connect 38 0 39 0;
#X connect 39 0 27 0;
#X connect 40 0 43 0;
#X connect 41 0 42 0;
#X connect 41 1 40 0;
#X connect 43 0 44 0;
#X connect 46 0 28 0;
